<?xml version="1.0" standalone="no"?><!DOCTYPE svg PUBLIC "-//W3C//DTD SVG 1.1//EN" "http://www.w3.org/Graphics/SVG/1.1/DTD/svg11.dtd"><svg t="1672297081184" class="icon" viewBox="0 0 1024 1024" version="1.1" xmlns="http://www.w3.org/2000/svg" p-id="2893" xmlns:xlink="http://www.w3.org/1999/xlink" width="200" height="200"><path d="M720.779947 227.6352c-50.213547 0-167.6288 29.73696-208.776534 30.979413-41.08288-2.317653-158.5664-30.979413-208.776533-30.979413-118.985387 0-223.351467 84.804267-215.453013 258.542933 7.901867 173.728427 162.358613 460.649813 274.54464 468.39808 107.85792 7.44448 101.884587-23.422293 149.684906-25.818453 47.80032 2.39616 41.8304 33.262933 149.684907 25.818453 112.182613-7.74144 266.63936-294.669653 274.54464-468.39808 7.89504-173.738667-96.467627-258.542933-215.453013-258.542933z" fill="#FF1515" p-id="2894"></path><path d="M630.7328 976.213333h-0.006827c-49.175893-0.003413-70.642347-9.9328-87.893333-17.913173-10.277547-4.758187-17.769813-8.22272-30.83264-9.03168-13.062827 0.80896-20.55168 4.276907-30.825813 9.03168-17.247573 7.983787-38.710613 17.916587-87.90016 17.916587-9.90208 0-20.790613-0.406187-32.365227-1.20832-83.841707-5.789013-162.74432-129.396053-192.774827-182.272-58.279253-102.608213-96.907947-219.716267-100.816213-305.626454-3.9936-87.845547 19.346773-160.918187 67.505493-211.31264C177.117867 231.533227 236.926293 207.1552 303.22688 207.1552c30.50496 0 80.37376 9.202347 128.597333 18.100907 32.812373 6.05184 63.83616 11.779413 80.4352 12.858026 17.373867-0.70656 52.036267-7.185067 85.572267-13.45536 46.011733-8.605013 93.5936-17.50016 122.948267-17.50016 66.300587 0 126.1056 24.378027 168.403626 68.63872 48.151893 50.394453 71.49568 123.467093 67.50208 211.316054-3.91168 85.910187-42.540373 203.021653-100.819626 305.629866-30.030507 52.875947-108.93312 176.4864-192.774827 182.268587-11.5712 0.795307-22.459733 1.201493-32.3584 1.201493zM512 908.27776c0.341333 0 0.682667 0.01024 1.024 0.027307 21.63712 1.082027 34.536107 7.048533 47.008427 12.82048 15.008427 6.946133 30.532267 14.127787 70.693546 14.1312h0.006827c8.96 0 18.899627-0.372053 29.538987-1.10592 94.767787-6.539947 247.586133-275.039573 255.494826-448.897707 3.478187-76.404053-15.957333-139.045547-56.19712-181.15584-34.491733-36.096-83.78368-55.975253-138.789546-55.975253-25.555627 0-73.29792 8.925867-115.418454 16.800426-38.90176 7.273813-72.502613 13.55776-92.736853 14.165334a19.182933 19.182933 0 0 1-1.77152-0.023894c-18.947413-1.068373-50.230613-6.84032-86.45632-13.523626-44.250453-8.164693-94.409387-17.421653-121.166507-17.421654-55.00928 0-104.301227 19.879253-138.79296 55.978667-40.239787 42.110293-59.675307 104.751787-56.200533 181.15584 7.908693 173.851307 160.730453 442.350933 255.49824 448.897707 10.63936 0.733867 20.578987 1.10592 29.545813 1.10592 40.17152 0 55.688533-7.181653 70.69696-14.127787 12.468907-5.771947 25.36448-11.738453 47.005014-12.823893 0.334507-0.017067 0.67584-0.027307 1.017173-0.027307z" fill="#CC0202" p-id="2895"></path><path d="M186.79808 502.766933c3.82976 84.230827 52.933973 203.424427 110.14144 280.378027" fill="#FF2C2C" p-id="2896"></path><path d="M296.956587 803.628373a20.445867 20.445867 0 0 1-16.452267-8.260266c-62.276267-83.770027-110.291627-206.434987-114.16576-291.669334a20.48 20.48 0 0 1 19.52768-21.387946c11.322027-0.546133 20.875947 8.229547 21.387947 19.52768 3.488427 76.721493 49.11104 192.406187 106.120533 269.08672a20.48 20.48 0 0 1-16.418133 32.703146z" fill="#FFFFFF" p-id="2897"></path><path d="M254.47424 329.782613c-17.32608 10.693973-32.600747 25.012907-44.868267 43.001174" fill="#FF2C2C" p-id="2898"></path><path d="M209.588907 393.263787a20.48 20.48 0 0 1-16.90624-32.017067c13.58848-19.930453 30.76096-36.38272 51.032746-48.892587a20.48 20.48 0 0 1 21.510827 34.85696c-15.34976 9.472-28.371627 21.957973-38.700373 37.10976a20.456107 20.456107 0 0 1-16.93696 8.942934z" fill="#FFFFFF" p-id="2899"></path><path d="M599.48032 123.613867c-59.026773 52.33664-83.182933 129.324373-70.806187 201.755306 70.43072 20.944213 149.74976 6.161067 208.769707-46.1824 59.026773-52.343467 83.176107-129.324373 70.806187-201.755306-70.437547-20.944213-149.756587-6.167893-208.769707 46.1824z" fill="#3A960F" p-id="2900"></path><path d="M591.69792 355.013973h-0.013653c-23.3472 0-46.51008-3.36896-68.846934-10.01472a20.48 20.48 0 0 1-14.349653-16.1792c-14.114133-82.599253 14.824107-165.03808 77.407573-220.52864A239.889067 239.889067 0 0 1 745.229653 47.786667c23.343787 0 46.513493 3.36896 68.857174 10.01472a20.48 20.48 0 0 1 14.349653 16.182613c14.107307 82.599253-14.830933 165.03808-77.407573 220.52864a239.936853 239.936853 0 0 1-159.330987 60.501333z m-44.622507-45.974186c14.609067 3.331413 29.56288 5.0176 44.608854 5.0176h0.01024a199.010987 199.010987 0 0 0 132.15744-50.189654c48.66048-43.147947 72.79616-105.949867 65.989973-170.100053a200.454827 200.454827 0 0 0-44.612267-5.0176 198.987093 198.987093 0 0 0-132.160853 50.189653c-48.66048 43.147947-72.802987 105.949867-65.993387 170.100054z" fill="#0F5108" p-id="2901"></path><path d="M517.60128 369.363627c15.45216-156.736853-42.089813-241.169067-42.089813-241.169067" fill="#7CBC00" p-id="2902"></path><path d="M517.62176 389.843627a20.48 20.48 0 0 1-20.404907-22.490454c14.434987-146.397867-38.144-226.901333-38.679893-227.69664-6.270293-9.373013-3.812693-22.08768 5.533013-28.398933a20.43904 20.43904 0 0 1 28.361387 5.403307c2.51904 3.69664 61.545813 92.443307 45.544107 254.713173a20.473173 20.473173 0 0 1-20.353707 18.469547z" fill="#915823" p-id="2903"></path></svg>