<svg xml:space="preserve" style="enable-background:new 0 0 255.975 251.146;" viewBox="0 0 255.975 251.146" height="251.146px" width="255.975px" y="0px" x="0px" xmlns:xlink="http://www.w3.org/1999/xlink" xmlns="http://www.w3.org/2000/svg" id="Layer_1" version="1.1">
<path d="M252.896,115.048c0-42.68-33.093-77.273-73.912-77.273c-0.636,0-1.262,0.03-1.894,0.049
	C164.203,15.18,140.573,0,113.541,0C72.72,0,39.628,34.6,39.628,77.28c0,0.554,0.029,1.1,0.04,1.652
	C17.342,92.227,2.277,117.317,2.277,146.104c0,42.678,33.094,77.27,73.914,77.27c2.321,0,4.615-0.123,6.884-0.342
	c13.558,17.17,35.068,28.115,58.028,28.115c37.732,0,67.832-29.563,72.33-67.734C236.896,170.465,252.896,144.715,252.896,115.048z" style="fill:#F7E3F4;"></path>
<g style="display:none;" id="Layer_3_1_">
	<g style="display:inline;">
		<path d="M83.635,140.439c0-11.564-10.059-20.938-22.467-20.938
			c-0.194,0-0.385,0.01-0.576,0.016c-3.917-6.136-11.102-10.245-19.318-10.245c-12.407,0-22.469,9.372-22.469,20.935
			c0,0.15,0.009,0.297,0.012,0.447c-6.783,3.602-11.363,10.397-11.363,18.197c0,11.562,10.059,20.934,22.468,20.934
			c0.705,0,1.403-0.033,2.092-0.094c4.122,4.648,10.358,7.617,17.335,7.617c11.471,0,20.925-8.012,22.293-18.352
			C78.772,155.451,83.635,148.477,83.635,140.439z" style="fill:#D7F7E4;stroke:#CCCCDE;stroke-width:3;"></path>
		<path d="M60.789,118.75c-0.193,0-0.386,0.01-0.575,0.016
			c-3.141-4.918-8.383-8.534-14.573-9.775c4.898,1.229,9.023,4.208,11.56,8.175c0.164-0.004,2.416,3.886,2.583,3.886
			c10.646,0,15.601,5.738,15.601,15.659c0,6.896-2.583,11.291-8.704,14.302c-1.173,8.875-9.287,15.747-19.129,15.747
			c-5.99,0-11.34-2.543-14.877-6.529c-0.591,0.049-1.189,0.076-1.794,0.076c-10.649,0-19.013-5.049-19.013-14.969
			c0-6.682,2.988-9.973,8.432-13.938c-0.146-0.855-0.75-8.42,1.267-10.438c4.792-4.793,6.963-8.908,11.25-11.038
			c-8.414,3.025-14.385,10.627-14.385,19.535c0,0.148,0.009,0.299,0.012,0.447C11.655,133.51,7.076,140.3,7.076,148.1
			c0,11.562,10.059,20.938,22.468,20.938c0.707,0,1.401-0.035,2.093-0.098c4.121,4.646,10.356,7.617,17.336,7.617
			c11.469,0,20.924-8.014,22.291-18.354c7.133-3.506,11.997-10.479,11.997-18.52C83.258,128.123,73.199,118.75,60.789,118.75z" style="opacity:0.1;fill:#6E6E96;enable-background:new    ;"></path>
		<path d="M28.811,151.761c0,0,11.635,2.276,11.635,13.661
			c0,0,3.134,19.344-8.976,33.027h27.96c-0.277-0.387-24.422-32.646,2.449-51.815C45.491,156.004,28.811,151.761,28.811,151.761z" style="fill:#EDE3DA;stroke:#CCCCDE;stroke-width:3;"></path>
		<g>
			<path d="M36.178,128.922" style="fill:#D57E58;"></path>
		</g>
		<path d="M54.905,151.73c0,0-17.652,22.793-4.085,46.721h8.611
			C59.43,198.451,41.515,173.414,54.905,151.73z" style="opacity:0.11;fill:#6E6E96;enable-background:new    ;"></path>
	</g>
	<g style="display:inline;">
		<path d="M253.475,139.156c0-10.828-9.42-19.604-21.04-19.604
			c-0.183,0-0.358,0.009-0.539,0.014c-3.669-5.744-10.396-9.596-18.091-9.596c-11.62,0-21.041,8.776-21.041,19.604
			c0,0.141,0.009,0.279,0.012,0.418c-6.354,3.375-10.644,9.74-10.644,17.043c0,10.826,9.421,19.605,21.04,19.605
			c0.66,0,1.312-0.033,1.96-0.092c3.858,4.354,9.698,7.137,16.233,7.137c10.736,0,19.596-7.5,20.875-17.188
			C248.92,153.213,253.475,146.684,253.475,139.156z" style="fill:#D7F7E4;stroke:#CCCCDE;stroke-width:3;"></path>
		<path d="M232.081,118.845c-0.186,0-0.358,0.009-0.539,0.013
			c-2.94-4.606-7.854-7.992-13.646-9.154c4.586,1.15,8.449,3.94,10.822,7.655c0.154-0.004,2.263,3.639,2.419,3.639
			c9.971,0,14.608,5.374,14.608,14.664c0,6.459-2.42,10.574-8.148,13.396c-1.1,8.311-8.698,14.74-17.914,14.74
			c-5.605,0-10.619-2.381-13.934-6.115c-0.559,0.047-1.112,0.07-1.684,0.07c-9.975,0-17.806-4.727-17.806-14.016
			c0-6.258,2.8-9.34,7.896-13.055c-0.14-0.809-0.701-7.888,1.188-9.772c4.485-4.488,6.521-8.343,10.534-10.337
			c-7.879,2.833-13.471,9.952-13.471,18.291c0,0.139,0.006,0.275,0.012,0.418c-6.354,3.373-10.646,9.736-10.646,17.041
			c0,10.824,9.421,19.604,21.041,19.604c0.661,0,1.313-0.032,1.959-0.091c3.859,4.355,9.699,7.137,16.234,7.137
			c10.739,0,19.594-7.5,20.875-17.188c6.68-3.285,11.229-9.812,11.229-17.342C253.122,127.623,243.702,118.845,232.081,118.845z" style="opacity:0.1;fill:#6E6E96;enable-background:new    ;"></path>
		<path d="M202.135,149.758c0,0,10.896,2.135,10.896,12.799
			c0,0,2.935,18.107-8.405,30.928h26.184c-0.26-0.359-22.87-30.566,2.294-48.521C217.754,153.732,202.135,149.758,202.135,149.758z" style="fill:#EDE3DA;stroke:#CCCCDE;stroke-width:3;"></path>
		<g>
			<path d="M209.036,128.373" style="fill:#D57E58;"></path>
		</g>
		<path d="M226.571,149.73c0,0-16.529,21.344-3.822,43.752h8.062
			C230.808,193.482,214.032,170.035,226.571,149.73z" style="opacity:0.11;fill:#6E6E96;enable-background:new    ;"></path>
	</g>
	<g style="display:inline;">
		<path d="M216.773,140.916c0-16.621-14.461-30.094-32.299-30.094
			c-0.278,0-0.554,0.012-0.828,0.019c-5.632-8.815-15.959-14.729-27.771-14.729c-17.838,0-32.301,13.475-32.301,30.096
			c0,0.215,0.014,0.429,0.018,0.646c-9.755,5.181-16.339,14.943-16.339,26.155c0,16.62,14.462,30.099,32.3,30.099
			c1.014,0,2.018-0.049,3.008-0.14c5.926,6.688,14.891,10.95,24.921,10.95c16.489,0,30.081-11.514,32.049-26.379
			C209.782,162.498,216.773,152.469,216.773,140.916z" style="fill:#D7F7E4;stroke:#CCCCDE;stroke-width:3;"></path>
		<path d="M183.931,109.738c-0.276,0-0.552,0.012-0.827,0.019
			c-4.516-7.069-12.051-12.269-20.949-14.052c7.041,1.768,12.973,6.049,16.614,11.751c0.237-0.006,3.476,5.586,3.713,5.586
			c15.31,0,22.431,8.248,22.431,22.512c0,9.913-3.717,16.231-12.515,20.563c-1.687,12.754-13.353,22.635-27.5,22.635
			c-8.608,0-16.302-3.655-21.387-9.395c-0.851,0.069-1.71,0.112-2.58,0.112c-15.31,0-27.332-7.255-27.332-21.517
			c0-9.604,4.298-14.336,12.12-20.039c-0.209-1.232-1.077-12.104,1.82-15.002c6.89-6.89,10.011-12.808,16.174-15.868
			c-12.096,4.351-20.679,15.277-20.679,28.08c0,0.215,0.011,0.429,0.017,0.646c-9.756,5.177-16.34,14.945-16.34,26.155
			c0,16.62,14.461,30.099,32.3,30.099c1.017,0,2.017-0.049,3.008-0.138c5.925,6.688,14.892,10.948,24.922,10.948
			c16.487,0,30.078-11.514,32.046-26.379c10.256-5.043,17.244-15.069,17.244-26.623C216.231,123.211,201.77,109.738,183.931,109.738
			z" style="opacity:0.1;fill:#6E6E96;enable-background:new    ;"></path>
		<path d="M137.959,157.193c0,0,16.727,3.271,16.727,19.643
			c0,0,4.504,27.809-12.902,47.48h40.193c-0.396-0.559-35.105-46.922,3.521-74.484C161.939,163.293,137.959,157.193,137.959,157.193
			z" style="fill:#EDE3DA;stroke:#CCCCDE;stroke-width:3;"></path>
		<g>
			<path d="M148.552,124.362" style="fill:#D57E58;"></path>
		</g>
		<path d="M175.472,157.148c0,0-25.378,32.766-5.873,67.164h12.378
			C181.977,224.313,156.223,188.32,175.472,157.148z" style="opacity:0.11;fill:#6E6E96;enable-background:new    ;"></path>
	</g>
	<g style="display:inline;">
		<path d="M144.936,142.027c0-13.646-11.873-24.707-26.517-24.707
			c-0.229,0-0.454,0.01-0.682,0.016c-4.622-7.237-13.102-12.092-22.8-12.092c-14.644,0-26.518,11.063-26.518,24.706
			c0,0.178,0.012,0.354,0.015,0.529c-8.01,4.252-13.414,12.271-13.414,21.477c0,13.646,11.872,24.707,26.52,24.707
			c0.832,0,1.653-0.041,2.469-0.104c4.864,5.482,12.224,8.982,20.46,8.982c13.537,0,24.695-9.451,26.309-21.65
			C139.196,159.746,144.936,151.514,144.936,142.027z" style="fill:#D7F7E4;stroke:#CCCCDE;stroke-width:3;"></path>
		<path d="M117.973,116.432c-0.228,0-0.452,0.009-0.679,0.015
			c-3.707-5.805-9.896-10.072-17.199-11.537c5.78,1.45,10.648,4.966,13.641,9.647c0.194-0.006,2.853,4.586,3.05,4.586
			c12.565,0,18.414,6.771,18.414,18.479c0,8.14-3.052,13.326-10.271,16.881c-1.384,10.475-10.961,18.584-22.576,18.584
			c-7.067,0-13.384-3.004-17.559-7.715c-0.698,0.062-1.404,0.097-2.118,0.097c-12.568,0-22.438-5.957-22.438-17.664
			c0-7.886,3.528-11.771,9.949-16.45c-0.171-1.018-0.884-9.938,1.496-12.316c5.655-5.657,8.218-10.515,13.277-13.027
			c-9.932,3.57-16.979,12.542-16.979,23.055c0,0.176,0.012,0.352,0.017,0.525c-8.013,4.25-13.415,12.271-13.415,21.479
			c0,13.645,11.873,24.707,26.518,24.707c0.834,0,1.655-0.041,2.469-0.109c4.864,5.488,12.226,8.988,20.461,8.988
			c13.536,0,24.693-9.451,26.312-21.656c8.418-4.141,14.158-12.371,14.158-21.854C144.491,127.494,132.618,116.432,117.973,116.432z" style="opacity:0.1;fill:#6E6E96;enable-background:new    ;"></path>
		<path d="M80.232,155.391c0,0,13.731,2.688,13.731,16.129
			c0,0,3.697,22.821-10.595,38.977h33c-0.328-0.455-28.824-38.52,2.89-61.151C99.918,160.398,80.232,155.391,80.232,155.391z" style="fill:#EDE3DA;stroke:#CCCCDE;stroke-width:3;"></path>
		<g>
			<path d="M88.928,128.438" style="fill:#D57E58;"></path>
		</g>
		<path d="M111.028,155.355c0,0-20.835,26.896-4.819,55.141h10.162
			C116.369,210.496,95.225,180.945,111.028,155.355z" style="opacity:0.11;fill:#6E6E96;enable-background:new    ;"></path>
	</g>
	<g style="display:inline;">
		<path d="M252.159,166.164c0-12.344-10.74-22.35-23.988-22.35
			c-0.202,0-0.406,0.008-0.61,0.014c-4.187-6.549-11.854-10.938-20.625-10.938c-13.248,0-23.983,10.008-23.983,22.35
			c0,0.162,0.012,0.318,0.014,0.479c-7.244,3.851-12.135,11.104-12.135,19.433c0,12.348,10.734,22.354,23.983,22.354
			c0.753,0,1.497-0.039,2.229-0.104c4.398,4.969,11.062,8.135,18.512,8.135c12.245,0,22.339-8.553,23.799-19.592
			C246.965,182.191,252.159,174.746,252.159,166.164z" style="fill:#D7F7E4;stroke:#CCCCDE;stroke-width:3;"></path>
		<path d="M227.767,143.008c-0.206,0-0.409,0.014-0.614,0.018
			c-3.354-5.25-8.947-9.111-15.558-10.438c5.229,1.313,9.633,4.492,12.339,8.729c0.175-0.004,2.579,4.146,2.757,4.146
			c11.368,0,16.655,6.123,16.655,16.721c0,7.359-2.757,12.055-9.291,15.27c-1.252,9.473-9.915,16.814-20.423,16.814
			c-6.396,0-12.106-2.723-15.884-6.98c-0.631,0.055-1.271,0.086-1.916,0.086c-11.368,0-20.299-5.389-20.299-15.979
			c0-7.137,3.188-10.646,9.002-14.887c-0.156-0.918-0.806-8.984,1.353-11.141c5.116-5.117,7.437-9.514,12.011-11.785
			c-8.979,3.229-15.355,11.347-15.355,20.854c0,0.157,0.013,0.314,0.017,0.479c-7.246,3.847-12.138,11.104-12.138,19.429
			c0,12.345,10.738,22.353,23.988,22.353c0.754,0,1.494-0.035,2.229-0.103c4.401,4.968,11.062,8.134,18.509,8.134
			c12.245,0,22.338-8.555,23.801-19.594c7.613-3.74,12.812-11.189,12.812-19.77C251.754,153.016,241.016,143.008,227.767,143.008z" style="opacity:0.1;fill:#6E6E96;enable-background:new    ;"></path>
		<path d="M193.625,178.252c0,0,12.422,2.434,12.422,14.588
			c0,0,3.345,20.646-9.584,35.262h29.853c-0.296-0.41-26.071-34.85,2.615-55.318C211.435,182.783,193.625,178.252,193.625,178.252z" style="fill:#EDE3DA;stroke:#CCCCDE;stroke-width:3;"></path>
		<g>
			<path d="M201.493,153.871" style="fill:#D57E58;"></path>
		</g>
		<path d="M221.485,178.219c0,0-18.847,24.334-4.359,49.882h9.19
			C226.316,228.1,207.189,201.369,221.485,178.219z" style="opacity:0.11;fill:#6E6E96;enable-background:new    ;"></path>
	</g>
	<g style="display:inline;">
		<path d="M87.893,164.313c0-13.111-11.408-23.738-25.479-23.738
			c-0.222,0-0.438,0.008-0.653,0.014c-4.443-6.954-12.589-11.611-21.907-11.611c-14.069,0-25.479,10.629-25.479,23.734
			c0,0.17,0.011,0.336,0.015,0.507C6.694,157.302,1.5,165.011,1.5,173.857c0,13.105,11.407,23.735,25.479,23.735
			c0.8,0,1.59-0.041,2.372-0.104c4.674,5.271,11.745,8.639,19.659,8.639c13.007,0,23.729-9.082,25.279-20.809
			C82.378,181.336,87.893,173.427,87.893,164.313z" style="fill:#D7F7E4;stroke:#CCCCDE;stroke-width:3;"></path>
		<path d="M61.986,139.719c-0.219,0-0.435,0.011-0.65,0.017
			c-3.563-5.578-9.506-9.678-16.525-11.086c5.553,1.393,10.231,4.771,13.106,9.27c0.186-0.004,2.737,4.406,2.928,4.406
			c12.076,0,17.692,6.506,17.692,17.758c0,7.82-2.931,12.807-9.87,16.223c-1.33,10.062-10.531,17.854-21.693,17.854
			c-6.792,0-12.859-2.885-16.871-7.412c-0.67,0.059-1.348,0.092-2.035,0.092c-12.074,0-21.561-5.723-21.561-16.975
			c0-7.574,3.391-11.307,9.561-15.807c-0.165-0.977-0.85-9.551,1.438-11.837c5.435-5.435,7.896-10.103,12.758-12.517
			c-9.541,3.431-16.312,12.051-16.312,22.146c0,0.17,0.011,0.338,0.015,0.508c-7.696,4.084-12.89,11.793-12.89,20.639
			c0,13.107,11.406,23.736,25.479,23.736c0.801,0,1.591-0.039,2.373-0.105c4.674,5.273,11.745,8.641,19.659,8.641
			c13.006,0,23.728-9.08,25.276-20.811c8.091-3.979,13.604-11.891,13.604-21.002C87.466,150.345,76.058,139.719,61.986,139.719z" style="opacity:0.1;fill:#6E6E96;enable-background:new    ;"></path>
		<path d="M25.723,177.152c0,0,13.193,2.584,13.193,15.496
			c0,0,3.553,21.932-10.181,37.451h31.707c-0.312-0.438-27.692-37.018,2.777-58.762C44.638,181.963,25.723,177.152,25.723,177.152z" style="fill:#EDE3DA;stroke:#CCCCDE;stroke-width:3;"></path>
		<g>
			<path d="M34.078,151.254" style="fill:#D57E58;"></path>
		</g>
		<path d="M55.313,177.117c0,0-20.02,25.848-4.633,52.982h9.764
			C60.444,230.1,40.129,201.707,55.313,177.117z" style="opacity:0.11;fill:#6E6E96;enable-background:new    ;"></path>
	</g>
</g>
<g style="display:none;" id="Layer_3">
	<g style="display:inline;">
		<path d="M84.635,140.439c0-11.564-10.059-20.938-22.467-20.938
			c-0.194,0-0.385,0.01-0.576,0.016c-3.917-6.136-11.102-10.245-19.318-10.245c-12.407,0-22.469,9.372-22.469,20.935
			c0,0.15,0.009,0.297,0.012,0.447c-6.783,3.602-11.363,10.397-11.363,18.197c0,11.562,10.059,20.934,22.468,20.934
			c0.705,0,1.403-0.033,2.092-0.094c4.122,4.648,10.358,7.617,17.335,7.617c11.471,0,20.925-8.012,22.293-18.352
			C79.772,155.451,84.635,148.477,84.635,140.439z" style="fill:#D7F7E4;stroke:#CCCCDE;stroke-width:3;"></path>
		<path d="M61.789,118.75c-0.193,0-0.386,0.01-0.575,0.016
			c-3.141-4.918-8.383-8.534-14.573-9.775c4.898,1.229,9.023,4.208,11.56,8.175c0.164-0.004,2.416,3.886,2.583,3.886
			c10.646,0,15.601,5.738,15.601,15.659c0,6.896-2.583,11.291-8.704,14.302c-1.173,8.875-9.287,15.747-19.129,15.747
			c-5.99,0-11.34-2.543-14.877-6.531c-0.591,0.051-1.189,0.078-1.794,0.078c-10.649,0-19.013-5.049-19.013-14.969
			c0-6.682,2.988-9.973,8.432-13.938c-0.146-0.857-0.75-8.421,1.267-10.438c4.792-4.793,6.963-8.908,11.25-11.038
			c-8.414,3.025-14.385,10.627-14.385,19.534c0,0.148,0.009,0.299,0.012,0.447c-6.787,3.604-11.364,10.396-11.364,18.197
			c0,11.562,10.059,20.936,22.468,20.936c0.707,0,1.402-0.035,2.093-0.096c4.121,4.646,10.356,7.617,17.336,7.617
			c11.469,0,20.924-8.014,22.291-18.354c7.133-3.506,11.997-10.479,11.997-18.52C84.258,128.123,74.199,118.75,61.789,118.75z" style="opacity:0.1;fill:#6E6E96;enable-background:new    ;"></path>
		<path d="M29.811,151.761c0,0,11.635,2.276,11.635,13.661
			c0,0,3.134,19.344-8.976,33.027h27.96c-0.277-0.387-24.422-32.643,2.449-51.815C46.491,156.004,29.811,151.761,29.811,151.761z" style="fill:#EDE3DA;stroke:#CCCCDE;stroke-width:3;"></path>
		<g>
			<path d="M37.178,128.922" style="fill:#D57E58;"></path>
		</g>
		<path d="M55.905,151.73c0,0-17.652,22.793-4.085,46.721h8.611
			C60.43,198.451,42.515,173.414,55.905,151.73z" style="opacity:0.11;fill:#6E6E96;enable-background:new    ;"></path>
	</g>
	<g style="display:inline;">
		<path d="M254.475,139.156c0-10.828-9.42-19.604-21.04-19.604
			c-0.183,0-0.358,0.009-0.539,0.014c-3.669-5.744-10.396-9.596-18.091-9.596c-11.62,0-21.041,8.776-21.041,19.604
			c0,0.141,0.009,0.279,0.012,0.418c-6.354,3.375-10.644,9.74-10.644,17.043c0,10.826,9.421,19.605,21.04,19.605
			c0.66,0,1.312-0.033,1.96-0.092c3.858,4.355,9.698,7.137,16.233,7.137c10.737,0,19.596-7.5,20.875-17.188
			C249.92,153.213,254.475,146.684,254.475,139.156z" style="fill:#D7F7E4;stroke:#CCCCDE;stroke-width:3;"></path>
		<path d="M233.081,118.845c-0.185,0-0.358,0.009-0.539,0.013
			c-2.94-4.606-7.854-7.992-13.646-9.154c4.586,1.15,8.449,3.94,10.822,7.655c0.154-0.004,2.263,3.639,2.419,3.639
			c9.971,0,14.608,5.374,14.608,14.664c0,6.459-2.42,10.574-8.148,13.396c-1.1,8.311-8.698,14.74-17.914,14.74
			c-5.605,0-10.619-2.381-13.934-6.115c-0.558,0.047-1.112,0.07-1.683,0.07c-9.975,0-17.806-4.727-17.806-14.016
			c0-6.256,2.8-9.338,7.896-13.055c-0.14-0.807-0.701-7.887,1.188-9.771c4.486-4.488,6.521-8.343,10.535-10.337
			c-7.879,2.833-13.471,9.952-13.471,18.292c0,0.139,0.006,0.275,0.012,0.418c-6.355,3.373-10.646,9.736-10.646,17.041
			c0,10.824,9.42,19.604,21.041,19.604c0.661,0,1.313-0.03,1.959-0.088c3.859,4.354,9.699,7.134,16.234,7.134
			c10.74,0,19.594-7.5,20.875-17.188c6.68-3.285,11.232-9.812,11.232-17.342C254.122,127.623,244.702,118.845,233.081,118.845z" style="opacity:0.1;fill:#6E6E96;enable-background:new    ;"></path>
		<path d="M203.135,149.758c0,0,10.896,2.135,10.896,12.799
			c0,0,2.935,18.107-8.405,30.928h26.184c-0.26-0.359-22.87-30.566,2.294-48.521C218.754,153.732,203.135,149.758,203.135,149.758z" style="fill:#EDE3DA;stroke:#CCCCDE;stroke-width:3;"></path>
		<g>
			<path d="M210.036,128.373" style="fill:#D57E58;"></path>
		</g>
		<path d="M227.571,149.73c0,0-16.529,21.344-3.822,43.752h8.062
			C231.808,193.482,215.032,170.035,227.571,149.73z" style="opacity:0.11;fill:#6E6E96;enable-background:new    ;"></path>
	</g>
	<g style="display:inline;">
		<path d="M217.773,140.916c0-16.621-14.461-30.094-32.299-30.094
			c-0.278,0-0.554,0.012-0.828,0.019c-5.632-8.815-15.959-14.729-27.771-14.729c-17.838,0-32.301,13.475-32.301,30.096
			c0,0.215,0.014,0.429,0.018,0.646c-9.755,5.18-16.339,14.944-16.339,26.156c0,16.62,14.462,30.099,32.3,30.099
			c1.014,0,2.018-0.051,3.008-0.14c5.926,6.688,14.891,10.95,24.921,10.95c16.489,0,30.081-11.514,32.049-26.379
			C210.782,162.498,217.773,152.469,217.773,140.916z" style="fill:#D7F7E4;stroke:#CCCCDE;stroke-width:3;"></path>
		<path d="M184.931,109.738c-0.276,0-0.552,0.012-0.827,0.019
			c-4.516-7.069-12.051-12.269-20.949-14.052c7.041,1.768,12.973,6.049,16.614,11.751c0.237-0.006,3.476,5.586,3.713,5.586
			c15.31,0,22.431,8.248,22.431,22.512c0,9.913-3.717,16.231-12.515,20.563c-1.687,12.754-13.353,22.635-27.5,22.635
			c-8.608,0-16.302-3.655-21.387-9.395c-0.851,0.069-1.71,0.112-2.58,0.112c-15.31,0-27.332-7.255-27.332-21.517
			c0-9.604,4.298-14.336,12.12-20.039c-0.209-1.232-1.077-12.104,1.82-15.002c6.89-6.89,10.011-12.808,16.174-15.868
			c-12.096,4.351-20.679,15.277-20.679,28.08c0,0.215,0.011,0.429,0.017,0.646c-9.756,5.177-16.34,14.945-16.34,26.155
			c0,16.62,14.461,30.099,32.3,30.099c1.017,0,2.017-0.049,3.008-0.135c5.925,6.688,14.892,10.945,24.922,10.945
			c16.487,0,30.078-11.514,32.046-26.379c10.256-5.043,17.244-15.066,17.244-26.623C217.231,123.211,202.77,109.738,184.931,109.738
			z" style="opacity:0.1;fill:#6E6E96;enable-background:new    ;"></path>
		<path d="M138.959,157.193c0,0,16.727,3.271,16.727,19.643
			c0,0,4.504,27.807-12.902,47.479h40.193c-0.396-0.556-35.105-46.922,3.521-74.484
			C162.939,163.293,138.959,157.193,138.959,157.193z" style="fill:#EDE3DA;stroke:#CCCCDE;stroke-width:3;"></path>
		<g>
			<path d="M149.552,124.362" style="fill:#D57E58;"></path>
		</g>
		<path d="M176.472,157.148c0,0-25.378,32.766-5.873,67.164h12.378
			C182.977,224.313,157.223,188.32,176.472,157.148z" style="opacity:0.11;fill:#6E6E96;enable-background:new    ;"></path>
	</g>
	<g style="display:inline;">
		<path d="M145.936,142.027c0-13.646-11.873-24.707-26.517-24.707
			c-0.229,0-0.454,0.01-0.682,0.016c-4.622-7.237-13.102-12.092-22.8-12.092c-14.644,0-26.518,11.063-26.518,24.706
			c0,0.178,0.012,0.354,0.015,0.529c-8.01,4.252-13.414,12.271-13.414,21.477c0,13.646,11.872,24.707,26.52,24.707
			c0.832,0,1.653-0.041,2.469-0.105c4.864,5.484,12.224,8.984,20.46,8.984c13.537,0,24.695-9.451,26.309-21.652
			C140.196,159.746,145.936,151.514,145.936,142.027z" style="fill:#D7F7E4;stroke:#CCCCDE;stroke-width:3;"></path>
		<path d="M118.973,116.432c-0.228,0-0.452,0.009-0.679,0.015
			c-3.707-5.805-9.896-10.072-17.199-11.537c5.78,1.45,10.648,4.966,13.641,9.647c0.194-0.006,2.853,4.586,3.05,4.586
			c12.565,0,18.414,6.771,18.414,18.479c0,8.14-3.052,13.326-10.271,16.881c-1.384,10.475-10.961,18.584-22.576,18.584
			c-7.067,0-13.384-3.004-17.559-7.715c-0.698,0.062-1.404,0.097-2.118,0.097c-12.568,0-22.438-5.957-22.438-17.664
			c0-7.886,3.528-11.771,9.949-16.45c-0.171-1.018-0.884-9.938,1.496-12.316c5.655-5.657,8.218-10.515,13.277-13.027
			c-9.932,3.57-16.979,12.542-16.979,23.055c0,0.176,0.012,0.352,0.017,0.525c-8.013,4.25-13.415,12.271-13.415,21.479
			c0,13.645,11.873,24.707,26.518,24.707c0.834,0,1.655-0.041,2.469-0.109c4.864,5.488,12.226,8.988,20.461,8.988
			c13.536,0,24.693-9.451,26.312-21.656c8.418-4.141,14.158-12.371,14.158-21.854C145.491,127.494,133.618,116.432,118.973,116.432z" style="opacity:0.1;fill:#6E6E96;enable-background:new    ;"></path>
		<path d="M81.232,155.391c0,0,13.731,2.688,13.731,16.129
			c0,0,3.697,22.821-10.595,38.977h33c-0.328-0.455-28.824-38.52,2.89-61.151C100.918,160.398,81.232,155.391,81.232,155.391z" style="fill:#EDE3DA;stroke:#CCCCDE;stroke-width:3;"></path>
		<g>
			<path d="M89.928,128.438" style="fill:#D57E58;"></path>
		</g>
		<path d="M112.028,155.355c0,0-20.835,26.896-4.819,55.141h10.162
			C117.369,210.496,96.225,180.945,112.028,155.355z" style="opacity:0.11;fill:#6E6E96;enable-background:new    ;"></path>
	</g>
	<g style="display:inline;">
		<path d="M253.159,166.164c0-12.344-10.74-22.35-23.988-22.35
			c-0.203,0-0.407,0.008-0.611,0.014c-4.186-6.549-11.854-10.938-20.625-10.938c-13.248,0-23.984,10.008-23.984,22.35
			c0,0.162,0.012,0.318,0.014,0.479c-7.244,3.851-12.135,11.104-12.135,19.433c0,12.346,10.735,22.352,23.984,22.352
			c0.753,0,1.497-0.039,2.23-0.102c4.398,4.967,11.061,8.133,18.511,8.133c12.245,0,22.339-8.551,23.799-19.592
			C247.965,182.191,253.159,174.746,253.159,166.164z" style="fill:#D7F7E4;stroke:#CCCCDE;stroke-width:3;"></path>
		<path d="M228.767,143.008c-0.206,0-0.409,0.014-0.614,0.018
			c-3.354-5.25-8.947-9.111-15.558-10.438c5.229,1.313,9.633,4.492,12.339,8.729c0.175-0.004,2.579,4.146,2.757,4.146
			c11.368,0,16.655,6.123,16.655,16.721c0,7.359-2.757,12.055-9.291,15.27c-1.252,9.473-9.915,16.814-20.423,16.814
			c-6.396,0-12.106-2.723-15.884-6.98c-0.631,0.055-1.271,0.086-1.916,0.086c-11.368,0-20.299-5.389-20.299-15.979
			c0-7.137,3.188-10.646,9.002-14.887c-0.156-0.918-0.805-8.984,1.353-11.141c5.116-5.117,7.437-9.512,12.011-11.785
			c-8.979,3.23-15.355,11.347-15.355,20.855c0,0.157,0.012,0.314,0.016,0.479c-7.246,3.847-12.137,11.104-12.137,19.429
			c0,12.345,10.738,22.351,23.988,22.351c0.754,0,1.496-0.035,2.229-0.101c4.401,4.968,11.062,8.134,18.509,8.134
			c12.245,0,22.338-8.555,23.801-19.593c7.613-3.743,12.811-11.19,12.811-19.771C252.754,153.016,242.016,143.008,228.767,143.008z" style="opacity:0.1;fill:#6E6E96;enable-background:new    ;"></path>
		<path d="M194.625,178.252c0,0,12.422,2.434,12.422,14.588
			c0,0,3.345,20.646-9.584,35.262h29.853c-0.296-0.41-26.071-34.85,2.615-55.318C212.435,182.783,194.625,178.252,194.625,178.252z" style="fill:#EDE3DA;stroke:#CCCCDE;stroke-width:3;"></path>
		<g>
			<path d="M202.493,153.871" style="fill:#D57E58;"></path>
		</g>
		<path d="M222.485,178.219c0,0-18.847,24.334-4.359,49.882h9.19
			C227.316,228.1,208.189,201.369,222.485,178.219z" style="opacity:0.11;fill:#6E6E96;enable-background:new    ;"></path>
	</g>
	<g style="display:inline;">
		<path d="M88.893,164.313c0-13.111-11.408-23.738-25.479-23.738
			c-0.222,0-0.438,0.008-0.653,0.014c-4.443-6.954-12.589-11.613-21.907-11.613c-14.069,0-25.479,10.629-25.479,23.736
			c0,0.17,0.011,0.336,0.015,0.507C7.694,157.302,2.5,165.011,2.5,173.857c0,13.105,11.407,23.735,25.479,23.735
			c0.8,0,1.59-0.041,2.372-0.104c4.674,5.271,11.745,8.639,19.659,8.639c13.007,0,23.729-9.082,25.279-20.809
			C83.378,181.336,88.893,173.427,88.893,164.313z" style="fill:#D7F7E4;stroke:#CCCCDE;stroke-width:3;"></path>
		<path d="M62.986,139.719c-0.219,0-0.435,0.011-0.65,0.017
			c-3.563-5.578-9.506-9.678-16.525-11.086c5.553,1.393,10.231,4.771,13.106,9.27c0.186-0.004,2.737,4.406,2.928,4.406
			c12.076,0,17.692,6.506,17.692,17.758c0,7.82-2.931,12.807-9.87,16.223c-1.33,10.062-10.531,17.854-21.693,17.854
			c-6.792,0-12.859-2.885-16.871-7.412c-0.67,0.059-1.348,0.092-2.035,0.092c-12.074,0-21.561-5.723-21.561-16.975
			c0-7.574,3.391-11.307,9.561-15.807c-0.165-0.977-0.85-9.551,1.438-11.837c5.435-5.435,7.896-10.103,12.758-12.517
			c-9.541,3.431-16.312,12.051-16.312,22.148c0,0.17,0.011,0.338,0.015,0.508c-7.696,4.084-12.89,11.791-12.89,20.637
			c0,13.107,11.406,23.736,25.479,23.736c0.801,0,1.591-0.039,2.373-0.104c4.674,5.273,11.745,8.641,19.659,8.641
			c13.006,0,23.728-9.082,25.276-20.811c8.091-3.979,13.604-11.891,13.604-21.002C88.466,150.345,77.058,139.719,62.986,139.719z" style="opacity:0.1;fill:#6E6E96;enable-background:new    ;"></path>
		<path d="M26.723,177.152c0,0,13.193,2.584,13.193,15.496
			c0,0,3.553,21.932-10.181,37.451h31.707c-0.312-0.438-27.692-37.018,2.777-58.762C45.638,181.963,26.723,177.152,26.723,177.152z" style="fill:#EDE3DA;stroke:#CCCCDE;stroke-width:3;"></path>
		<g>
			<path d="M35.078,151.254" style="fill:#D57E58;"></path>
		</g>
		<path d="M56.313,177.117c0,0-20.02,25.848-4.633,52.982h9.764
			C61.444,230.1,41.129,201.707,56.313,177.117z" style="opacity:0.11;fill:#6E6E96;enable-background:new    ;"></path>
	</g>
</g>
<path d="M214.225,57.646h-14c-0.828,0-1.5-0.671-1.5-1.5s0.672-1.5,1.5-1.5h14c0.828,0,1.5,0.671,1.5,1.5
	S215.053,57.646,214.225,57.646z" style="fill:#FFFFFF;"></path>
<path d="M228.225,57.646h-4c-0.828,0-1.5-0.671-1.5-1.5s0.672-1.5,1.5-1.5h4c0.828,0,1.5,0.671,1.5,1.5
	S229.053,57.646,228.225,57.646z" style="fill:#FFFFFF;"></path>
<path d="M238.26,66.646h-18.035c-0.828,0-1.5-0.671-1.5-1.5s0.672-1.5,1.5-1.5h18.035
	c0.828,0,1.5,0.671,1.5,1.5S239.088,66.646,238.26,66.646z" style="fill:#FFFFFF;"></path>
<path d="M209.225,66.646h-5c-0.828,0-1.5-0.671-1.5-1.5s0.672-1.5,1.5-1.5h5c0.828,0,1.5,0.671,1.5,1.5
	S210.053,66.646,209.225,66.646z" style="fill:#FFFFFF;"></path>
<path d="M32.225,134.146h-9c-0.829,0-1.5-0.672-1.5-1.5s0.671-1.5,1.5-1.5h9c0.829,0,1.5,0.672,1.5,1.5
	S33.053,134.146,32.225,134.146z" style="fill:#FFFFFF;"></path>
<path d="M17.725,134.146h-5.5c-0.829,0-1.5-0.672-1.5-1.5s0.671-1.5,1.5-1.5h5.5c0.829,0,1.5,0.672,1.5,1.5
	S18.553,134.146,17.725,134.146z" style="fill:#FFFFFF;"></path>
<path d="M24.975,126.896h-15.5c-0.829,0-1.5-0.672-1.5-1.5c0-0.829,0.671-1.5,1.5-1.5h15.5
	c0.829,0,1.5,0.671,1.5,1.5C26.475,126.224,25.803,126.896,24.975,126.896z" style="fill:#FFFFFF;"></path>
<path d="M36.725,126.896h-4.5c-0.829,0-1.5-0.672-1.5-1.5c0-0.829,0.671-1.5,1.5-1.5h4.5
	c0.829,0,1.5,0.671,1.5,1.5C38.225,126.224,37.553,126.896,36.725,126.896z" style="fill:#FFFFFF;"></path>
<path d="M56.464,221.983H45.282c-0.829,0-1.5-0.672-1.5-1.5s0.671-1.5,1.5-1.5h11.182
	c0.829,0,1.5,0.672,1.5,1.5S57.293,221.983,56.464,221.983z" style="fill:#CCCCDE;"></path>
<path d="M34.654,221.983h-4.429c-0.829,0-1.5-0.672-1.5-1.5s0.671-1.5,1.5-1.5h4.429
	c0.829,0,1.5,0.672,1.5,1.5S35.482,221.983,34.654,221.983z" style="fill:#CCCCDE;"></path>
<path d="M208.254,221.983H196.74c-0.828,0-1.5-0.672-1.5-1.5s0.672-1.5,1.5-1.5h11.514
	c0.828,0,1.5,0.672,1.5,1.5S209.082,221.983,208.254,221.983z" style="fill:#CCCCDE;"></path>
<path d="M223.312,221.983h-7.086c-0.828,0-1.5-0.672-1.5-1.5s0.672-1.5,1.5-1.5h7.086
	c0.828,0,1.5,0.672,1.5,1.5S224.14,221.983,223.312,221.983z" style="fill:#CCCCDE;"></path>
<g id="Layer_3_2_">
</g>
<g>
	<path d="M171.821,138.07c0,2.086-1.706,3.795-3.795,3.795H80.749c-2.086,0-3.794-1.709-3.794-3.795V94.81
		c0-2.087,1.708-3.794,3.794-3.794h87.277c2.089,0,3.796,1.708,3.796,3.794L171.821,138.07L171.821,138.07z" style="fill:#F79EAE;"></path>
</g>
<path d="M168.026,135.793H80.749c-2.086,0-3.795-1.707-3.795-3.794v6.071c0,2.086,1.708,3.795,3.795,3.795
	h87.276c2.089,0,3.795-1.709,3.795-3.795v-6.071C171.821,134.086,170.115,135.793,168.026,135.793z" style="fill:#EB96A5;"></path>
<rect height="4.174" width="94.866" style="fill:#EB96A5;" y="98.606" x="76.953"></rect>
<g>
	<path d="M168.026,143.365H80.749c-2.919,0-5.294-2.375-5.294-5.295V94.81c0-2.919,2.375-5.294,5.294-5.294
		h87.277c2.919,0,5.294,2.375,5.294,5.294v43.26C173.321,140.99,170.946,143.365,168.026,143.365z M80.749,92.516
		c-1.265,0-2.294,1.029-2.294,2.294v43.26c0,1.266,1.029,2.295,2.294,2.295h87.276c1.266,0,2.295-1.029,2.295-2.295V94.81
		c0-1.265-1.029-2.294-2.294-2.294H80.749z" style="fill:#6E6E96;"></path>
</g>
<g>
	<path d="M179.031,98.606V84.945c0-2.087-1.708-3.794-3.796-3.794H73.539c-2.087,0-3.794,1.708-3.794,3.794
		v13.661H179.031L179.031,98.606z" style="fill:#F79EAE;"></path>
</g>
<g style="opacity:0.21;enable-background:new    ;">
	<path d="M175.236,80.391H73.539c-2.087,0-3.794,1.707-3.794,3.794v4.553c0-2.086,1.708-3.794,3.794-3.794
		h101.695c2.088,0,3.795,1.708,3.795,3.794v-4.553C179.031,82.098,177.323,80.391,175.236,80.391z" style="fill:#FFFFFF;"></path>
</g>
<rect height="4.934" width="109.286" style="fill:#EB96A5;" y="93.672" x="69.745"></rect>
<g>
	<path d="M179.031,100.106H69.745c-0.829,0-1.5-0.671-1.5-1.5V84.945c0-2.919,2.375-5.294,5.294-5.294
		h101.696c2.92,0,5.296,2.375,5.296,5.294v13.661C180.531,99.435,179.86,100.106,179.031,100.106z M71.245,97.106h106.286V84.945
		c0-1.265-1.03-2.294-2.296-2.294H73.539c-1.265,0-2.294,1.029-2.294,2.294V97.106z" style="fill:#6E6E96;"></path>
</g>
<rect height="60.715" width="17.708" style="fill:#FFFFFF;" y="81.15" x="115.534"></rect>
<g style="opacity:0.15;enable-background:new    ;">
	<rect height="6.072" width="17.708" style="fill:#6E6E96;" y="135.793" x="115.534"></rect>
</g>
<rect height="3.794" width="17.708" style="fill:#FFFFFF;" y="81.15" x="115.534"></rect>
<g style="opacity:0.3;enable-background:new    ;">
	<rect height="10.373" width="17.708" style="fill:#FFFFFF;" y="84.945" x="115.534"></rect>
</g>
<path d="M133.242,143.365h-17.708c-0.829,0-1.5-0.672-1.5-1.5V81.15c0-0.829,0.671-1.5,1.5-1.5h17.708
	c0.828,0,1.5,0.671,1.5,1.5v60.715C134.742,142.693,134.071,143.365,133.242,143.365z M117.034,140.365h14.708V82.65h-14.708
	V140.365z" style="fill:#6E6E96;"></path>
<g>
	<path d="M123.898,30.437h20.688c0,0,13.399-1.646,7.054-12.931C145.876,7.261,123.898,21.269,123.898,30.437
		z" style="fill:#FFFFFF;"></path>
	<path d="M144.586,31.937h-20.688c-0.829,0-1.5-0.671-1.5-1.5c0-7.579,13.061-18.022,22.54-18.022
		c3.637,0,6.406,1.506,8.01,4.356c2.086,3.71,2.459,6.946,1.107,9.619c-2.343,4.633-9.003,5.501-9.286,5.536
		C144.708,31.933,144.648,31.937,144.586,31.937z M125.625,28.937h18.856c0.675-0.103,5.396-0.92,6.9-3.908
		c0.867-1.724,0.515-4.007-1.049-6.787c-1.055-1.875-2.87-2.827-5.395-2.827c-3.684,0-8.599,2.053-12.827,5.358
		C128.689,23.447,126.338,26.441,125.625,28.937z" style="fill:#6E6E96;"></path>
	<g>
		<path d="M164.905,77.523c0,1.784-1.457,3.242-3.24,3.242h-74.55c-1.783,0-3.241-1.458-3.241-3.242V42.36
			c0-1.783,1.458-3.241,3.241-3.241h74.55c1.783,0,3.24,1.458,3.24,3.241V77.523z" style="fill:#E4B9F7;"></path>
	</g>
	<path d="M161.338,75.579H86.789c-1.783,0-3.242-1.458-3.242-3.242v5.186c0,1.784,1.459,3.242,3.242,3.242
		h74.549c1.783,0,3.241-1.458,3.241-3.242v-5.186C164.58,74.12,163.121,75.579,161.338,75.579z" style="fill:#CAA4DB;"></path>
	<rect height="3.564" width="81.03" style="fill:#CAA4DB;" y="45.6" x="83.871"></rect>
	<g>
		<path d="M161.664,82.265h-74.55c-2.614,0-4.741-2.127-4.741-4.742V42.36c0-2.614,2.127-4.741,4.741-4.741
			h74.55c2.614,0,4.74,2.127,4.74,4.741c0,0.829-0.672,1.5-1.5,1.5s-1.5-0.671-1.5-1.5c0-0.96-0.78-1.741-1.74-1.741h-74.55
			c-0.96,0-1.741,0.781-1.741,1.741v35.163c0,0.96,0.781,1.742,1.741,1.742h74.55c0.96,0,1.74-0.782,1.74-1.742V45.6
			c0-0.829,0.672-1.5,1.5-1.5s1.5,0.671,1.5,1.5v31.923C166.405,80.138,164.279,82.265,161.664,82.265z" style="fill:#6E6E96;"></path>
	</g>
	<g>
		<path d="M171.062,45.6V33.932c0-1.783-1.457-3.242-3.24-3.242H80.955c-1.784,0-3.242,1.459-3.242,3.242
			V45.6H171.062z" style="fill:#E4B9F7;"></path>
	</g>
	<path d="M167.823,30.043H80.955c-1.784,0-3.242,1.458-3.242,3.242
		v3.889c0-1.782,1.458-3.241,3.242-3.241h86.866c1.783,0,3.24,1.459,3.24,3.241v-3.889
		C171.062,31.501,169.604,30.043,167.823,30.043z" style="opacity:0.21;fill:#FFFFFF;enable-background:new    ;"></path>
	<rect height="4.214" width="93.349" style="fill:#CAA4DB;" y="41.386" x="77.713"></rect>
	<path d="M124.134,30.672h-20.687c0,0-13.847-3.338-7.053-12.929
		C104.387,6.458,124.134,21.503,124.134,30.672z" style="fill:#FFFFFF;"></path>
	<path d="M109.314,22.733c0,0-3.047,3.695,1.328,3.695h-4.375
		c0,0-14.295-1.465-6.013-12.32c0,0-13.546,11.118,2.148,15.934h19.864C122.265,30.043,115.28,22.733,109.314,22.733z" style="opacity:0.16;fill:#6E6E96;enable-background:new    ;"></path>
	<g>
		<path d="M110.264,24.09c0,0,7.64,0.353,13.87,6.582" style="fill:#FFFFCC;"></path>
		<path d="M124.134,32.172c-0.384,0-0.768-0.146-1.061-0.439c-5.716-5.714-12.812-6.141-12.882-6.145
			c-0.826-0.042-1.464-0.745-1.423-1.571c0.041-0.826,0.708-1.456,1.565-1.426c0.335,0.016,8.295,0.455,14.861,7.02
			c0.586,0.585,0.586,1.535,0,2.121C124.902,32.025,124.518,32.172,124.134,32.172z" style="fill:#6E6E96;"></path>
	</g>
	<path d="M138.681,22.943c0,0,3.048,3.697-1.328,3.697h4.376
		c0,0,14.295-1.466,6.013-12.32c0,0,13.546,11.119-2.148,15.933h-19.864C125.729,30.253,132.714,22.943,138.681,22.943z" style="opacity:0.16;fill:#6E6E96;enable-background:new    ;"></path>
	<path d="M123.898,31.937c-0.384,0-0.768-0.146-1.061-0.439c-0.585-0.586-0.585-1.536,0-2.122
		c6.568-6.565,14.527-7.005,14.862-7.021c0.819-0.036,1.529,0.602,1.567,1.429c0.038,0.827-0.6,1.527-1.426,1.567
		c-0.085,0.005-7.171,0.436-12.883,6.146C124.665,31.791,124.281,31.937,123.898,31.937z" style="fill:#6E6E96;"></path>
	<g>
		<path d="M171.062,47.1H77.713c-0.829,0-1.5-0.671-1.5-1.5V33.932c0-2.615,2.127-4.742,4.742-4.742h86.866
			c2.614,0,4.74,2.127,4.74,4.742V45.6C172.562,46.429,171.89,47.1,171.062,47.1z M79.213,44.1h90.349V33.932
			c0-0.96-0.78-1.742-1.74-1.742H80.955c-0.96,0-1.742,0.782-1.742,1.742V44.1z" style="fill:#6E6E96;"></path>
	</g>
	<path d="M124.154,32.172c-0.006,0-0.013,0-0.02,0h-20.687c-0.118,0-0.236-0.014-0.352-0.042
		c-0.315-0.076-7.734-1.917-9.635-6.983c-0.953-2.541-0.378-5.323,1.71-8.271c2.161-3.051,5.294-4.664,9.061-4.664
		c9.297,0,21.137,10.123,21.398,18.188c0.016,0.088,0.024,0.178,0.024,0.271C125.654,31.5,124.983,32.172,124.154,32.172z
		 M103.635,29.172h18.802c-1.461-5.87-10.745-13.959-18.206-13.959c-2.791,0-5.016,1.143-6.612,3.397
		c-1.476,2.084-1.931,3.927-1.352,5.478C97.343,26.965,101.797,28.687,103.635,29.172z" style="fill:#6E6E96;"></path>
	<g>
		<circle r="4.9" cy="26.008" cx="123.642" style="fill:#FFFFCC;"></circle>
		<path d="M123.642,32.408c-3.529,0-6.399-2.871-6.399-6.4c0-3.529,2.871-6.399,6.399-6.399
			c3.529,0,6.4,2.871,6.4,6.399C130.042,29.537,127.171,32.408,123.642,32.408z M123.642,22.608c-1.875,0-3.399,1.525-3.399,3.399
			c0,1.875,1.525,3.4,3.399,3.4c1.875,0,3.4-1.525,3.4-3.4C127.042,24.133,125.517,22.608,123.642,22.608z" style="fill:#6E6E96;"></path>
	</g>
	<rect height="50.074" width="15.127" style="fill:#FFFFFF;" y="30.69" x="116.554"></rect>
	<rect height="5.187" width="15.127" style="opacity:0.15;fill:#6E6E96;enable-background:new    ;" y="75.579" x="116.554"></rect>
	<rect height="3.242" width="15.127" style="fill:#FFFFFF;" y="30.69" x="116.554"></rect>
	<rect height="8.859" width="15.127" style="opacity:0.3;fill:#FFFFFF;enable-background:new    ;" y="33.932" x="116.554"></rect>
	<path d="M131.681,82.264h-15.127c-0.829,0-1.5-0.671-1.5-1.5V30.69c0-0.829,0.671-1.5,1.5-1.5h15.127
		c0.828,0,1.5,0.671,1.5,1.5v50.074C133.181,81.593,132.509,82.264,131.681,82.264z M118.054,79.264h12.127V32.19h-12.127V79.264z" style="fill:#6E6E96;"></path>
</g>
<g>
	<g>
		<path d="M188.013,215.425c0,2.783-2.276,5.06-5.062,5.06H66.583c-2.784,0-5.062-2.276-5.062-5.06v-54.89
			c0-2.785,2.277-5.061,5.062-5.061h116.369c2.784,0,5.062,2.274,5.062,5.061L188.013,215.425L188.013,215.425z" style="fill:#AEE8CC;"></path>
	</g>
	<path d="M182.446,214.157H66.076c-2.783,0-5.06-1.618-5.06-3.598v5.756c0,1.977,2.276,3.597,5.06,3.597
		h116.369c2.782,0,5.061-1.619,5.061-3.597v-5.756C187.505,212.538,185.228,214.157,182.446,214.157z" style="fill:#9DD1B8;"></path>
	<rect height="5.565" width="126.491" style="fill:#9DD1B8;" y="165.594" x="61.522"></rect>
	<g>
		<path d="M182.951,221.983H66.583c-3.618,0-6.562-2.942-6.562-6.56v-54.89c0-3.617,2.943-6.561,6.562-6.561
			h116.369c3.618,0,6.562,2.943,6.562,6.561c0,0.828-0.672,1.5-1.5,1.5s-1.5-0.672-1.5-1.5c0-1.963-1.598-3.561-3.562-3.561H66.583
			c-1.964,0-3.562,1.598-3.562,3.561v54.89c0,1.963,1.598,3.56,3.562,3.56h116.368c1.964,0,3.562-1.597,3.562-3.56v-49.83
			c0-0.828,0.672-1.5,1.5-1.5s1.5,0.672,1.5,1.5v49.83C189.513,219.041,186.57,221.983,182.951,221.983z" style="fill:#6E6E96;"></path>
	</g>
	<g>
		<path d="M194.589,165.594V147.38c0-2.78-2.277-5.06-5.061-5.06H59.246c-2.782,0-5.061,2.278-5.061,5.06
			v18.215L194.589,165.594L194.589,165.594z" style="fill:#AEE8CC;"></path>
	</g>
	<path d="M189.53,141.308H59.246c-2.782,0-5.061,2.274-5.061,5.06
		v6.07c0-2.781,2.278-5.06,5.061-5.06h130.285c2.781,0,5.06,2.277,5.06,5.06v-6.07C194.589,143.585,192.312,141.308,189.53,141.308z" style="opacity:0.21;fill:#FFFFFF;enable-background:new    ;"></path>
	<rect height="6.576" width="140.404" style="fill:#9DD1B8;" y="159.018" x="54.186"></rect>
	<g>
		<path d="M194.589,167.094H54.186c-0.829,0-1.5-0.672-1.5-1.5V147.38c0-3.617,2.943-6.56,6.561-6.56h130.282
			c3.617,0,6.561,2.942,6.561,6.56v18.214C196.089,166.422,195.417,167.094,194.589,167.094z M55.686,164.094h137.403V147.38
			c0-1.963-1.598-3.56-3.561-3.56H59.246c-1.963,0-3.561,1.597-3.561,3.56V164.094z" style="fill:#6E6E96;"></path>
	</g>
	<rect height="78.163" width="23.61" style="fill:#FFFFFF;" y="142.32" x="112.54"></rect>
	<rect height="8.096" width="23.61" style="opacity:0.15;fill:#6E6E96;enable-background:new    ;" y="212.387" x="112.54"></rect>
	<rect height="5.06" width="23.61" style="fill:#FFFFFF;" y="142.32" x="112.54"></rect>
	<rect height="13.829" width="23.61" style="opacity:0.3;fill:#FFFFFF;enable-background:new    ;" y="147.38" x="112.54"></rect>
	<path d="M136.151,221.983h-23.61c-0.829,0-1.5-0.672-1.5-1.5V142.32c0-0.828,0.671-1.5,1.5-1.5h23.61
		c0.828,0,1.5,0.672,1.5,1.5v78.163C137.651,221.311,136.979,221.983,136.151,221.983z M114.04,218.983h20.61V143.82h-20.61V218.983
		z" style="fill:#6E6E96;"></path>
</g>
<g>
	<path d="M231.879,115.553c0.725-2.22,2.993-4.943,5.045-6.058l0.009-0.004c2.054-1.113,2.054-2.932,0-4.043
		l-0.009-0.006c-2.052-1.111-4.438-3.617-5.3-5.566c-0.863-1.95-2.275-1.95-3.142,0c-0.86,1.951-3.248,4.455-5.303,5.566
		l-0.01,0.006c-2.055,1.111-2.055,2.93,0,4.043l0.01,0.004c2.055,1.112,4.321,3.838,5.045,6.058l0.516,1.567
		c0.724,2.22,1.898,2.22,2.627,0L231.879,115.553z" style="fill:#FFBF00;"></path>
</g>
<g>
	<path d="M34.945,47.154c1.023-3.143,4.237-7.002,7.146-8.575l0.012-0.007c2.906-1.575,2.906-4.151,0-5.725
		l-0.012-0.009c-2.905-1.573-6.283-5.12-7.507-7.884c-1.223-2.761-3.223-2.761-4.44,0c-1.221,2.764-4.601,6.311-7.504,7.884
		l-0.015,0.009c-2.903,1.571-2.903,4.147,0,5.725l0.015,0.007c2.903,1.573,6.119,5.436,7.146,8.575l0.723,2.22
		c1.023,3.146,2.697,3.146,3.721,0L34.945,47.154z" style="fill:#FFB0B8;"></path>
</g>
<g>
	<path d="M22.524,171.389c0.615-1.889,2.546-4.207,4.292-5.151l0.009-0.005c1.744-0.944,1.744-2.493,0-3.438
		l-0.009-0.006c-1.746-0.941-3.773-3.076-4.508-4.733c-0.733-1.658-1.936-1.658-2.67,0c-0.733,1.657-2.763,3.792-4.509,4.733
		l-0.007,0.006c-1.746,0.943-1.746,2.492,0,3.438l0.007,0.005c1.746,0.944,3.677,3.267,4.292,5.151l0.435,1.334
		c0.615,1.89,1.621,1.89,2.235,0L22.524,171.389z" style="fill:#7FDCFF;"></path>
</g>
<g id="Layer_7_2_">
	<path d="M232.903,222.396c1.077-3.309,4.459-7.369,7.521-9.027l0.014-0.006c3.062-1.66,3.062-4.371,0-6.022
		l-0.014-0.013c-3.063-1.655-6.613-5.391-7.899-8.299c-1.285-2.901-3.396-2.901-4.685,0c-1.281,2.908-4.841,6.644-7.9,8.299
		l-0.012,0.013c-3.062,1.651-3.062,4.362,0,6.022l0.012,0.006c3.062,1.658,6.443,5.729,7.521,9.027l0.768,2.336
		c1.072,3.311,2.842,3.311,3.912,0L232.903,222.396z" style="fill:#DEC2FF;"></path>
</g>
</svg>
