<?xml version="1.0" standalone="no"?><!DOCTYPE svg PUBLIC "-//W3C//DTD SVG 1.1//EN" "http://www.w3.org/Graphics/SVG/1.1/DTD/svg11.dtd"><svg t="1672299455321" class="icon" viewBox="0 0 1024 1024" version="1.1" xmlns="http://www.w3.org/2000/svg" p-id="3934" xmlns:xlink="http://www.w3.org/1999/xlink" width="200" height="200"><path d="M803.483974 416.978225c0.37298 0.644238 0.74596 1.288477 1.108768 1.939497 33.853033 60.093881 57.839046 99.070305 71.964821 116.925881 24.013139 30.350411 59.598834 50.328583 106.753695 59.924344l-149.31751 86.612768c0.973139 1.437669 1.898808 2.916026 2.773616 4.445245 19.456 33.856424 7.91057 77.149245-25.78649 96.696795-33.70045 19.54755-76.789828 7.947868-96.245828-25.908556-0.878199-1.525828-1.695364-3.075391-2.444715-4.638517L560.714596 840.900662c8.98543-48.846834 9.558464-89.796662 1.72249-122.846092-4.733457-19.961219-25.755974-61.185695-63.06755-123.680212-49.647046-83.157616-22.48053-190.820026 60.673696-240.467073 0.634066-0.376371 1.268132-0.752742 1.905589-1.118941 84.425748-48.975682 192.566252-20.232477 241.535153 64.189881z" fill="#FACB62" p-id="3935"></path><path d="M837.086093 686.734411a70.873007 70.873007 0 0 1 8.836238 26.142516c0.60355 4.624954-95.364238 57.520318-130.60747 44.625378z m-33.439365-270.173245c0.423841 0.725616 0.840901 1.458013 1.25457 2.19041 33.819126 60.158305 57.781404 99.172026 71.886834 117.037775 23.962278 30.34702 59.469987 50.318411 106.523126 59.910781l-89.359258 50.589669c-52.824159-32.276344-89.481325-66.953325-109.971497-104.034331-30.736954-55.62151-57.015099-97.354596-78.834437-125.202649-36.392689-46.45298-83.818808-67.875603-142.285139-64.274649 84.103629-48.877351 191.90845-20.320636 240.785801 63.779603z" fill="#E8A44E" p-id="3936"></path><path d="M809.838199 414.991258l8.622622 15.146384c29.184 51.037245 50.264159 84.836026 63.077722 101.18612l1.763179 2.203973c23.023046 28.190517 56.869298 46.91751 101.823576 56.130119 6.127046 1.25457 7.473166 9.426225 2.068344 12.545696l-145.218119 83.842543c19.842543 36.789404 7.059497 82.84906-29.214516 103.790198-36.274013 20.94453-82.550675 8.98543-104.49208-26.593483l-143.682119 82.954172c-5.004715 2.892291-11.111417-1.437669-10.070464-7.137483 8.741298-47.904212 9.222781-87.880901 1.559735-119.882596-4.333351-18.086146-23.524874-55.991099-57.34739-112.931603l-5.052186-8.47004c-51.701828-86.229616-24.030093-197.86257 61.802808-249.340609 0.857854-0.512 1.719099-1.020609 2.583735-1.519046 88.009748-50.813457 200.731126-20.334199 251.775153 68.072265z m-244.969961-56.292874c-0.803603 0.461139-1.600424 0.92906-2.393854 1.407152-79.417642 47.629563-105.017642 150.921325-57.184636 230.705166l3.933245 6.584795c34.436238 57.835656 54.251656 96.642543 59.663259 117.170013l0.37298 1.49192c7.357881 30.716609 7.666437 67.756927 1.010437 111.14808l395.338596-228.246887-2.32604-0.64763c-39.373139-11.16906-70.032106-30.44196-91.780238-57.842437l-1.837775-2.356556c-13.413722-17.523285-34.344689-51.2-62.948874-101.226808l-8.605669-15.122649c-47.287099-81.903046-151.711364-110.137642-233.241431-63.06755z m265.371974 334.122384L720.004238 756.471523c18.177695 29.072106 56.160636 38.789934 85.954967 21.588768 29.797722-17.204556 40.370013-54.956927 24.281007-85.236132z" fill="#4C3030" p-id="3937"></path><path d="M541.689219 368.673907c1.088424 0.60355 2.170066 1.213881 3.248317 1.837775 101.576053 58.734199 136.307285 188.687258 77.573087 290.263311l-0.769696 1.322384c-41.638146 70.822146-67.431417 118.872159-77.383205 144.15004-16.94347 43.028344-16.255152 91.87857 2.058172 146.547285l-178.688-103.322278c-0.898543 1.864901-1.875073 3.709457-2.926199 5.530278-23.284132 40.390358-74.850331 54.227921-115.176265 30.909881-40.329325-23.31804-54.146543-74.962225-30.86241-115.352583 1.051126-1.820821 2.159894-3.590781 3.322914-5.303099L40.688742 660.371497c55.763921-19.808636 98.348079-43.638675 127.752477-71.486729 17.73351-16.797669 47.636344-63.121801 89.701721-138.969006 55.865642-100.735152 182.814517-137.107497 283.546279-81.241855z" fill="#FACB62" p-id="3938"></path><path d="M544.506914 369.589404c101.769325 58.700291 136.683656 188.785589 77.986755 290.551523l-1.000265 1.712318c-41.729695 70.815364-67.587391 118.868768-77.569695 144.160212-17.011285 43.096159-16.322967 92.024371 2.068344 146.781245L439.777483 889.930596c1.634331-74.324768 15.492238-133.238675 41.570332-176.745113 39.112053-65.261351 66.526093-117.576901 82.242119-156.950039 26.210331-65.671629 19.852715-127.888106-19.08302-186.64604zM217.006623 770.271788l146.632052 84.578331a84.347762 84.347762 0 0 1-21.765086 24.826914c-4.428291 3.390728-117.007258-64.983311-124.866966-109.405245z" fill="#E8A44E" p-id="3939"></path><path d="M246.889113 449.58347c58.161166-106.106066 191.267603-145.007894 297.299072-86.890808 1.420715 0.779868 2.831258 1.573298 4.23502 2.383682 104.68196 60.436344 140.511788 194.356556 80.031365 299.113113-0.308556 0.535735-0.620503 1.07147-0.935842 1.603815l-5.554013 9.460132c-35.863735 61.256901-59.052927 104.315762-69.479417 128.939232l-1.176583 2.827867-0.691708 1.729272c-16.333139 41.410967-15.68551 88.589563 2.136159 141.766357 1.983576 5.916821-4.404556 11.141934-9.802596 8.025855l-171.096159-98.782093c-25.41351 42.909669-80.672212 57.486411-123.941298 32.506914-43.56747-25.152424-58.479894-80.889219-33.310517-124.483815l-0.508609 0.891762-176.894305-102.128742c-4.83857-2.79396-4.357086-9.839894 0.617113-12.043867l0.508609-0.203444c54.960318-19.517033 96.757828-42.885934 125.416265-69.994808 5.645563-5.343788 12.830517-14.146119 21.442967-26.339179a6.771285 6.771285 0 1 1 11.053775 7.812239c-9.080371 12.861033-16.777325 22.29404-23.195974 28.363443-27.712424 26.217113-66.566781 48.819709-116.54951 67.899338L534.829775 938.21457l-0.691709-2.553219c-12.918675-48.429775-11.670887-92.44143 3.885775-131.875603 8.849801-22.446623 29.753642-62.077457 62.78951-119.1129l9.436397-16.204292 5.601484-9.538119 0.881589-1.508874c56.73706-98.276874 23.124768-223.910146-75.084291-280.609907a205.244185 205.244185 0 0 0-3.973934-2.237881c-99.473801-54.522914-224.34755-18.025113-278.911152 81.519894l-23.033219 41.919576a6.771285 6.771285 0 1 1-11.816689-6.61192zM225.822517 775.44604c-20.717351 36.982675-7.927523 83.842543 28.868662 105.085457 37.091179 21.415841 84.530861 8.687046 105.960265-28.431259l-0.522172 0.888371z m-21.137802-241.433431a6.771285 6.771285 0 1 1-0.00339 13.54257 6.771285 6.771285 0 0 1 0.00339-13.54257z" fill="#4C3030" p-id="3940"></path><path d="M780.491444 78.01049c10.98596 3.000795 21.124238 7.371444 29.777377 13.03396 29.987603 19.618755 38.057536 92.841536 23.769007 167.905484-14.295311 75.063947-36.562225 172.411762-116.915709 156.353271a159.781298 159.781298 0 0 1-30.279205-9.341457L566.251656 360.136053v-27.919258c123.971815-29.441695 197.781192-69.414993 221.431523-119.913113 35.477192-75.745483-12.237139-135.669828-7.191735-134.293192zM236.727099 78.01049c-10.98596 3.000795-21.124238 7.371444-29.777377 13.03396-29.987603 19.618755-38.057536 92.841536-23.769007 167.905484 14.295311 75.063947 36.562225 172.411762 116.915709 156.353271a159.781298 159.781298 0 0 0 30.279205-9.341457L450.966887 360.136053v-27.919258c-123.971815-29.441695-197.781192-69.414993-221.431523-119.913113-35.477192-75.745483 12.237139-135.669828 7.191735-134.293192z" fill="#9E0000" p-id="3941"></path><path d="M742.569536 74.596026m-6.781457 0a6.781457 6.781457 0 1 0 13.562914 0 6.781457 6.781457 0 1 0-13.562914 0Z" fill="#4C3030" p-id="3942"></path><path d="M789.904106 387.177113c-16.851921 22.239788-39.990252 34.727841-72.839629 28.112529a157.540026 157.540026 0 0 1-27.064795-8.093668c-1.07147-0.423841-2.136159-0.861245-3.204238-1.312212A4762227070.304636 4762227070.304636 0 0 0 566.251656 359.742728v-10.741827c68.346914-21.422623 114.959258-32.605245 139.833642-33.554649 77.783311-2.963497 96.188185 55.411285 83.818808 71.730861z" fill="#9E0000" p-id="3943"></path><path d="M452.553748 349.74347v10.623153L331.019868 406.005828a162.449801 162.449801 0 0 1-30.516557 9.304159c-33.120636 6.540715-56.448848-5.808318-73.439788-27.803974-3.682331-4.770755-4.658861-13.169589-2.18702-22.558516 0.949404-3.607735 2.410808-7.364662 4.42151-11.114808 1.980185-3.695894 23.436715 30.167311 61.033113 31.567682 25.077828 0.939232 79.153166-10.945272 162.222622-35.656901z m115.301722 0c83.069457 24.711629 137.141404 36.596132 162.222623 35.660292 37.596397-1.403762 59.052927-35.263576 61.033112-31.571073a51.271205 51.271205 0 0 1 4.41812 11.114808c2.475232 9.392318 1.498702 17.787762-2.18363 22.555126-16.99094 21.999046-40.319152 34.348079-73.443178 27.807364a162.449801 162.449801 0 0 1-30.516557-9.304159l-121.53049-45.639205v-10.623153z m214.073643-270.824265l1.824212 0.474702-0.118676-0.016953c-3.997669-0.152583 42.77743 59.086834 7.385007 133.767629-23.596079 49.786066-96.737483 89.301616-219.430994 118.539867l-3.729801 0.88159V158.828503c53.905801-36.840265 94.418225-61.134834 121.53049-72.873536 28.929695-12.528742 63.508344-14.410596 92.539762-7.035762zM331.019868 85.954967c26.688424 11.558993 66.359947 35.277139 119.014569 71.154437l2.519311 1.719099v173.737537C327.612185 303.24302 253.219603 263.435868 229.389563 213.144583 193.993748 138.463788 240.768848 79.224371 236.77457 79.380344l-0.105113 0.010173 1.739444-0.454358C267.453881 71.544371 302.066437 73.416053 331.019868 85.954967zM208.214464 91.380132l-1.586861 1.003656 1.322384-0.83751 0.264477-0.166146z m604.421086 0.274649l0.488265 0.305166 0.457748 0.294993-0.946013-0.600159z m-1.851338-1.122331l0.440795 0.261086 0.620503 0.372981-1.061298-0.634067z m-601.861086 0.420451l-0.708662 0.427231 0.027125-0.016953 0.674755-0.406888 0.701881-0.423841 0.179709-0.108503 0.09494-0.050861-0.705271 0.42045-0.264477 0.159365z m600.43698-1.241007l0.389934 0.217007 0.203443 0.115284-0.593377-0.332291z m-597.900715-0.237351l-0.786649 0.444185 0.284821-0.159364 0.501828-0.284821z m595.818808-0.908715l0.996874 0.535735 0.101722 0.054252-1.098596-0.589987zM213.537907 88.335258l-0.935841 0.50861 0.512-0.27804 0.423841-0.23057z m592.461987-0.447576l-0.586596-0.298384 0.196662 0.098331-0.077986-0.040689 0.237351 0.122067 0.230569 0.118675-1.176583-0.596768zM215.311258 87.429934l-0.430622 0.217006 0.118675-0.061033 0.311947-0.155973z m589.044133-0.37298l0.135629 0.067814-0.064424-0.033907-0.071205-0.033907z m0.128847 0.064423l-0.800212-0.389933 0.617113 0.298384 0.033907 0.020344-1.464794-0.708662zM217.362649 86.426278l-1.241007 0.596768 0.593378-0.284821 0.647629-0.311947z m0.179709-0.084768l-0.179709 0.084768 0.179709-0.084768z m2.000529-0.915497l-1.40037 0.634066 0.657801-0.298384 0.742569-0.335682z m581.323444 0l0.335682 0.149192 0.169537 0.077987-0.084769-0.040689 0.223789 0.101722 0.101721 0.04747 0.128848 0.057643-0.135629-0.061033 0.430622 0.196662-1.169801-0.528954z m0.505219 0.227179l0.23396 0.105113-0.09494-0.04408-0.13902-0.061033z m-1.383418-0.613722l0.257696 0.111894 0.037298 0.016954-0.040689-0.016954-0.254305-0.111894z m-578.322649-0.532344l-1.505483 0.644238 0.69849-0.301775 0.803603-0.339072z m578.04461 0.410278l0.28143 0.122066 0.254305 0.111894-0.383153-0.166145-0.152582-0.067815z m0.573033 0.250914l-0.732398-0.318729 0.311947 0.13563 0.125457 0.054251-1.241006-0.532344z m-1.763179-0.756133l0.023735 0.010173 0.04408 0.020344-0.067815-0.030517z m-0.203444-0.084768l0.203444 0.084768-0.084768-0.033907-0.118676-0.050861zM223.632106 83.703523l-1.664848 0.674755 0.756133-0.308556 0.908715-0.366199z m574.681007 0.623894l-0.549298-0.223788 0.552688 0.223788 0.118676 0.050861-0.122066-0.050861-1.373245-0.55947zM225.486834 82.984689l-1.573298 0.610331 0.874808-0.342464 0.69849-0.267867z m0.1831-0.067815l-0.1831 0.067815 0.1831-0.067815z m1.844556-0.674755l-1.224053 0.440795 0.664583-0.237351 0.55947-0.203444z m565.509086 0.04747l0.430623 0.152583 0.244132 0.09155-0.674755-0.244133z m-2.404026-0.827337l1.247788 0.42045 0.383152 0.135629-1.63094-0.556079zM231.908874 80.773934l-1.841165 0.593377-0.284822 0.094941 0.318729-0.105113 0.949404-0.308556 0.857854-0.274649z m556.584689 0l1.654675 0.528953 0.145802 0.050861-1.800477-0.579814z m-0.973139-0.298384l0.010172 0.00339 0.101722 0.030517-0.111894-0.033907z m-553.977219-0.200053l-0.596768 0.179708 0.427232-0.125457 0.169536-0.054251z m553.787338 0.14241l0.125457 0.037298-0.135629-0.040688 0.132238 0.040688-0.132238-0.040688-0.125457-0.037298 0.125457 0.037298-0.064424-0.020345 0.074596 0.023735zM233.790728 80.200901l-0.118675 0.037298-0.132238 0.037298 0.250913-0.074596z m2.875338-0.810384l-0.108503 0.030516-1.407152 0.389934 1.485139-0.410278 0.030516-0.010172z m547.083868 0.00339l0.016953 0.006782 0.857855 0.237351-0.851073-0.237351-0.023735-0.006782z m3.4009 0.969749l-0.101721-0.030517 0.09494 0.030517-0.535735-0.162755 0.444185 0.135629 0.142411 0.040689-0.04408-0.013563z" fill="#C40000" p-id="3944"></path><path d="M329.012556 79.003974l1.712318 0.725615 2.624424 1.156239c26.169642 11.742093 63.562596 34.127682 112.334834 67.207629l2.488795 1.691973 5.038623 3.438199c1.695364 1.159629 2.763444 3.017748 2.929589 5.042013l0.023735 0.55608v201.524556c0 2.637987-1.525828 5.018278-3.882384 6.133828l-0.515391 0.217007-121.354172 45.635814a167.932609 167.932609 0 0 1-31.540556 9.609325c-25.772927 5.096265-47.226066-0.169536-64.820556-14.495365l-0.237351-0.193271-0.600159-0.498437c-5.130172-4.275709-9.928053-9.331285-14.403815-15.132821a20.324026 20.324026 0 0 1-0.654411-0.901934 136.036026 136.036026 0 0 1-10.294251-15.970331c-14.186808-25.586437-22.989139-55.499444-32.550994-103.308716l-0.525562-2.624423-1.549563-7.951259c-15.336265-79.705854-5.533669-153.193113 26.888476-174.181721 33.788609-21.873589 87.04-25.125298 128.888371-7.683391zM717.817219 422.464424l-0.966358-0.169537a106.746914 106.746914 0 0 1-1.898808-0.356026 161.249483 161.249483 0 0 1-17.784371-4.587656 171.994702 171.994702 0 0 1-6.737377-2.295523l-0.074596-0.027126a175.951682 175.951682 0 0 1-0.393325-0.14241 6.788238 6.788238 0 1 1 4.679205-12.742358l1.881855 0.667974 1.159629 0.413668a159.167576 159.167576 0 0 0 2.780397 0.92906l-1.173192-0.383152c0.88498 0.294993 1.773351 0.579815 2.658331 0.857854l-1.481748-0.474702c0.97653 0.318728 1.95645 0.623894 2.936371 0.922278l-1.454623-0.447576c0.840901 0.261086 1.681801 0.518781 2.522702 0.766305l-1.068079-0.318729c0.935841 0.28143 1.871682 0.556079 2.807523 0.817166l-1.739444-0.498437a150.446623 150.446623 0 0 0 13.115338 3.227973 94.285987 94.285987 0 0 0 2.912636 0.525563l-0.705272-0.118675a89.115126 89.115126 0 0 0 3.421245 0.525563l-0.512-0.067815 0.993484 0.132238-0.481484-0.064423c0.461139 0.061033 0.915497 0.118675 1.373245 0.169536l-0.891761-0.105113c0.539126 0.067815 1.074861 0.128848 1.610596 0.18649l-0.718835-0.077986c0.46453 0.054252 0.925669 0.101722 1.386808 0.149192l-0.667973-0.067815 1.091814 0.108503-0.423841-0.040688 1.461404 0.132238-1.037563-0.09155c0.518781 0.04747 1.030781 0.09155 1.542782 0.128848l-0.505219-0.037298 1.088424 0.077987-0.583205-0.040689 1.559735 0.101722-0.97653-0.061033c0.450967 0.030517 0.895152 0.057642 1.342729 0.077987l-0.362808-0.020345c0.403497 0.023735 0.806993 0.040689 1.207099 0.054252l-0.847682-0.033907c0.488265 0.023735 0.973139 0.040689 1.454622 0.054251l-0.610331-0.020344c0.406887 0.016954 0.810384 0.027126 1.213881 0.033907l-0.60355-0.013563c0.434013 0.013563 0.868026 0.023735 1.298649 0.027126l-0.695099-0.010172c0.905325 0.016954 1.803868 0.016954 2.695629 0l-0.857854 0.013563c0.454358-0.003391 0.908715-0.010172 1.356291-0.023735l-0.498437 0.013563c0.450967-0.010172 0.898543-0.023735 1.346119-0.040689l-0.847682 0.027126c0.42045-0.010172 0.840901-0.023735 1.25457-0.04408l-0.406888 0.016954 1.118941-0.050861-0.712053 0.033907c0.522172-0.023735 1.037563-0.050861 1.552953-0.088159l-0.8409 0.054252 1.217271-0.077987-0.376371 0.023735c0.389934-0.023735 0.776477-0.054252 1.15963-0.088159l-0.783259 0.064424c0.447576-0.033907 0.891762-0.071205 1.332557-0.115285l-0.549298 0.050861c18.038675-1.566517 32.774781-10.640106 45.144158-26.678251 4.601219-5.960901 2.146331-21.446358-8.083496-34.239576-13.610384-17.021457-37.508238-27.017325-70.669563-25.776318-22.43306 0.840901-63.898278 10.280689-123.978596 28.312583l-2.587126 0.779867-7.676609 2.329431v0.908715l15.665165 5.889695a6.788238 6.788238 0 0 1-4.275708 12.874596l-0.505219-0.169536-1.427497-0.535735-0.013562-0.006782-18.6151-7.001854a6.788238 6.788238 0 0 1-4.37743-5.791364l-0.023735-0.559471V158.821722c0-2.237881 1.105377-4.333351 2.953324-5.598093l7.527417-5.130172c47.944901-32.517086 84.893669-54.702623 110.995497-66.600689l1.339338-0.60694 2.624424-1.156239c10.206093-4.424901 21.22257-7.652874 32.673059-9.629668a6.788238 6.788238 0 1 1 2.305696 13.379814c-10.409536 1.793695-20.38506 4.713113-29.577325 8.704-24.019921 10.412927-59.11057 31.099762-105.122755 62.002861l-4.797881 3.231364-7.347708 4.987762v178.142093c60.239682-18.286199 102.935735-28.444821 128.46792-30.482649l1.118941-0.084769 2.14294-0.135629 2.003921-0.091549c37.308185-1.39698 65.369854 10.341722 81.777589 30.86241 5.147126 6.432212 8.856583 13.562914 11.013086 20.57155 11.731921-23.609642 19.666225-52.647841 28.492292-97.686888l1.010437-5.197986 0.423841-2.237881c13.766358-73.850066 4.543576-141.213669-21.36159-157.987603-11.575947-7.49351-26.335788-12.722013-42.641801-15.156556a6.788238 6.788238 0 1 1 2.00053-13.423894c18.140397 2.705801 34.727841 8.581934 48.016106 17.187603 32.100026 20.781775 42.03147 93.011073 27.346225 171.794649l-1.491921 7.724079c-9.972132 50.884662-18.886358 82.038675-33.588556 108.550781-19.818808 35.751841-47.531232 53.244609-84.632583 48.250067l-0.386543-0.054252-1.017218-0.145801-0.376371-0.057643a86.782305 86.782305 0 0 1-1.261351-0.200053l-0.318729-0.050861 0.318729 0.050861a105.526252 105.526252 0 0 1-0.474702-0.077986zM237.642596 349.09245c-9.992477 12.494834-12.562649 27.559841-8.392053 33.808954a86.687364 86.687364 0 0 0 8.859974 10.033166l-0.176318-0.172928a67.804397 67.804397 0 0 0 9.734781 7.86649l-0.450967-0.301774a60.809325 60.809325 0 0 0 2.37351 1.525827l-0.18649-0.122066a58.835921 58.835921 0 0 0 3.309351 1.888636l-0.288212-0.155974c0.32551 0.176318 0.654411 0.345854 0.983311 0.515391l-0.695099-0.359417c0.349245 0.18649 0.69849 0.366199 1.051126 0.542517l-0.352636-0.1831c6.693298 3.411073 13.935894 5.448901 21.788821 6.069404a1.105377 1.105377 0 0 0 0.09155 0.010172l-0.09155-0.010172c0.37298 0.030517 0.739179 0.057642 1.112159 0.077987l-1.017218-0.067815c0.42045 0.033907 0.847682 0.061033 1.274914 0.088159l-0.257696-0.020344a66.322649 66.322649 0 0 0 2.827868 0.115285l-0.349245-0.006782 1.281695 0.020345-0.93245-0.013563c0.93245 0.020344 1.878464 0.016954 2.831258 0l-0.823947 0.010172c0.406887-0.003391 0.813775-0.010172 1.220662-0.023735l-0.396715 0.010172c0.42045-0.010172 0.847682-0.020344 1.274914-0.037298l-0.881589 0.027126c0.467921-0.010172 0.935841-0.027126 1.403761-0.050861l-0.522172 0.023735c0.440795-0.020344 0.881589-0.040689 1.329166-0.067815l-0.806994 0.04408 1.308821-0.067815-0.501827 0.027126a84.961483 84.961483 0 0 0 11.623417-1.508874 154.135735 154.135735 0 0 0 26.556185-7.852927l2.637987-1.064689 117.159841-44.062517v-0.908715l-7.676609-2.32943c-58.866437-17.753854-100.182464-27.400477-123.558146-28.936477l-1.037563-0.061033-1.966622-0.094941c-33.161325-1.241007-57.06257 8.758252-70.672954 25.776318z m-30.136795-251.015629c-25.13547 16.275497-34.568477 80.166993-22.534781 151.402808l0.37298 2.159894 0.796821 4.42151 0.92906 4.858914c9.026119 46.486887 17.031629 76.172715 28.973775 100.226543 2.159894-7.001854 5.86596-14.112212 10.999523-20.530861 16.129695-20.171444 43.523391-31.859285 79.888953-30.923444l1.888636 0.061034 2.00053 0.091549c24.826914 1.369854 67.953589 11.406411 129.803868 30.119841l1.963231 0.593378v-178.148874l-7.344318-4.991153c-48.378914-32.696795-85.073377-54.461881-109.920635-65.237616-38.043974-16.495894-87.50453-13.73245-117.817643 5.899868z" fill="#4C3030" p-id="3945"></path><path d="M511.064159 139.019868C545.595338 175.453245 562.860927 216.141987 562.860927 261.086093c0 44.940715-17.265589 85.629457-51.793377 122.062834C461.020397 383.152318 420.450331 328.500556 420.450331 261.086093s40.570066-122.066225 90.613828-122.066225z" fill="#C40000" p-id="3946"></path><path d="M508.609272 383.152318c50.562543 0 91.549669-54.651762 91.549668-122.066225s-40.987126-122.066225-91.549668-122.066225c34.890596 36.433377 52.332503 77.122119 52.332503 122.066225 0 44.944106-17.441907 85.632848-52.332503 122.066225z" fill="#9E0000" p-id="3947"></path><path d="M510.304636 132.238411c53.888848 0 96.635762 58.052662 96.635761 128.847682s-42.746914 128.847682-96.635761 128.847682S413.668874 331.881113 413.668874 261.086093s42.746914-128.847682 96.635762-128.847682z m0 13.505271c-45.412026 0-83.167788 51.274596-83.167788 115.342411 0 64.067815 37.755762 115.342411 83.167788 115.34241 45.412026 0 83.167788-51.274596 83.167788-115.34241 0-64.067815-37.755762-115.342411-83.167788-115.342411z" fill="#4C3030" p-id="3948"></path></svg>