<?xml version="1.0" standalone="no"?><!DOCTYPE svg PUBLIC "-//W3C//DTD SVG 1.1//EN" "http://www.w3.org/Graphics/SVG/1.1/DTD/svg11.dtd"><svg t="1672300129879" class="icon" viewBox="0 0 1024 1024" version="1.1" xmlns="http://www.w3.org/2000/svg" p-id="25312" xmlns:xlink="http://www.w3.org/1999/xlink" width="200" height="200"><path d="M501.32 721.55a156 156 0 0 1-311.94 0c0-81.35 60.07-131.58 142.09-107.74a56 56 0 0 0 29.71 0.5c87.63-22.72 140.14 25.69 140.14 107.24z" fill="#FF454E" p-id="25313"></path><path d="M345.35 887.52c-91.52 0-166-74.45-166-166 0-43.91 16.23-80.28 45.7-102.4 28.9-21.7 67.68-27 109.18-14.94a46 46 0 0 0 24.41 0.42c44.37-11.51 82.46-6.26 110.16 15.17 27.39 21.19 42.48 57.33 42.48 101.75 0.04 91.55-74.41 166-165.93 166zM292 617.91c-20.86 0-39.68 5.81-54.91 17.24-24.32 18.26-37.71 48.94-37.71 86.41 0 80.49 65.48 146 146 146s146-65.48 146-146c0-38.09-12.33-68.6-34.72-85.93C434 618.12 401.85 614.1 363.7 624a66.05 66.05 0 0 1-35-0.58 131.73 131.73 0 0 0-36.7-5.51z" fill="#786B59" p-id="25314"></path><path d="M803.08 719.39a122.38 122.38 0 0 1-122 122.38c-70 0.22-124.92-59-122.67-128.93 2-61.33 31.44-100.08 113.47-84.08a29.21 29.21 0 0 0 14.57-0.7c69.84-22.89 116.63 25.86 116.63 91.33z" fill="#FF454E" p-id="25315"></path><path d="M680.7 851.77a130 130 0 0 1-93.95-39.9 136.93 136.93 0 0 1-38.32-99.35c1.19-37 12-63.87 32.18-79.95 21.27-17 52.62-21.54 93.2-13.63a19.35 19.35 0 0 0 9.54-0.38c33.16-10.87 64.62-7.29 88.59 10.07 26.15 18.94 41.14 52 41.14 90.76 0 72.76-59.19 132.14-131.94 132.38z m-42.77-216.61c-18.93 0-34 4.36-44.85 13.05-15.37 12.25-23.67 34.11-24.65 64.95a116.83 116.83 0 0 0 32.68 84.77 110.18 110.18 0 0 0 79.61 33.84h0.36c61.76-0.2 112-50.61 112-112.37 0-32.25-12-59.42-32.87-74.56-18.91-13.7-43.33-16.21-70.63-7.27a39.06 39.06 0 0 1-19.6 1 168.65 168.65 0 0 0-32.05-3.41zM339.44 623.92a10 10 0 0 1-7.71-16.36 1060.82 1060.82 0 0 1 89-92.61c71-65.56 136.84-108.63 195.65-128a10 10 0 0 1 6.26 19c-134.17 44.21-274.08 212.63-275.47 214.33a10 10 0 0 1-7.73 3.64z" fill="#786B59" p-id="25316"></path><path d="M675.28 633.7a10 10 0 0 1-9.91-8.74c-0.4-3.18-41.6-319-148.28-397.3a10 10 0 0 1 11.84-16.12C577 246.86 618 327 650.6 449.77a1492.27 1492.27 0 0 1 34.62 172.68 10 10 0 0 1-9.93 11.26z" fill="#786B59" p-id="25317"></path><path d="M560.24 348.17s-76.83-128.57-251.15 39.71c0 0 192.23 95.12 251.15-39.71z" fill="#52D9B7" p-id="25318"></path><path d="M441.1 430.49c-67.46 0-132.94-31.9-136.45-33.64a10 10 0 0 1-2.51-16.16c68.33-66 130.73-95.72 185.48-88.43s80.14 49 81.2 50.78a10 10 0 0 1 0.58 9.13c-14.84 34-38.91 57.2-71.54 69.1-18.14 6.62-37.54 9.22-56.76 9.22z m-114.17-45.66c30.36 12.5 106.19 38.8 164.13 17.64 25.66-9.37 45.05-27.29 57.72-53.31A96.51 96.51 0 0 0 484.64 312c-45.55-5.86-98.55 18.63-157.71 72.83z" fill="#786B59" p-id="25319"></path><path d="M242.74 712.86a10.17 10.17 0 0 1-1.29-0.08 10 10 0 0 1-8.64-11.2c4.6-35.66 40.67-53.53 42.2-54.27a10 10 0 0 1 8.75 18c-0.41 0.2-27.92 14.07-31.12 38.85a10 10 0 0 1-9.9 8.7zM612.16 709.76a10 10 0 0 1-9.89-8.59l-0.25-1.73a10.35 10.35 0 0 1-0.1-1.42 10 10 0 0 1 19.9-1.4l0.25 1.73a10 10 0 0 1-9.91 11.41z" fill="#FFFFFF" p-id="25320"></path></svg>