<?xml version="1.0" standalone="no"?><!DOCTYPE svg PUBLIC "-//W3C//DTD SVG 1.1//EN" "http://www.w3.org/Graphics/SVG/1.1/DTD/svg11.dtd"><svg t="1672299594592" class="icon" viewBox="0 0 1024 1024" version="1.1" xmlns="http://www.w3.org/2000/svg" p-id="15211" xmlns:xlink="http://www.w3.org/1999/xlink" width="200" height="200"><path d="M768.2 518.7c0-0.2 0-0.2-0.1-0.3-0.9-4.8-2.3-9.7-4-14.6-0.3-0.8-0.6-1.6-1-2.3-0.3-0.5-0.6-1.1-0.9-1.6-0.3-0.5-0.7-1-1-1.5-0.4-0.4-0.7-0.9-1.1-1.3l-0.1-0.1-1.1-1.1-0.2-0.2-1.2-0.9c-0.1-0.1-0.2-0.1-0.3-0.2-0.4-0.3-0.8-0.5-1.2-0.7-0.1-0.1-0.3-0.1-0.4-0.2l-1.2-0.6c-0.1-0.1-0.3-0.1-0.4-0.2-0.4-0.2-0.8-0.3-1.2-0.5-0.1-0.1-0.3-0.1-0.4-0.1-0.4-0.1-0.8-0.3-1.2-0.4-0.2 0-0.3-0.1-0.5-0.1l-1.5-0.3c-0.5-0.1-1-0.1-1.5-0.2h-2.1c-0.5 0-1 0.1-1.5 0.1h-0.3l-1.5 0.3c-0.1 0-0.2 0.1-0.3 0.1-0.5 0.1-1 0.3-1.5 0.4h-0.1c-0.1 0-0.2 0.1-0.3 0.1-0.3 0.1-0.7 0.2-1 0.4-3 1.3-6.2 2-9.5 2-13.1 0-23.7-10.7-23.7-23.8 0-1.1 0.1-2.3 0.2-3.4 1-7.2-2.1-14.3-8.2-18.3-6-4-13.8-4.2-19.9-0.5-3.7 2.2-7.9 3.4-12.2 3.4-12.1 0-22.2-9.1-23.6-21.1-0.8-7.6-6.2-13.9-13.6-16-7.4-2.1-15.2 0.6-19.9 6.7-4.5 5.9-11.4 9.3-18.8 9.3-10.4 0-19.5-6.6-22.6-16.5-2.3-7.2-8.7-12.3-16.2-13-7.5-0.7-14.7 3.3-18.2 10-4.1 7.9-12.2 12.8-21 12.8s-16.9-4.9-21-12.8c-3.5-6.7-10.7-10.6-18.2-10-7.5 0.7-13.9 5.8-16.2 12.9-3.2 9.9-12.3 16.6-22.6 16.6-7.4 0-14.3-3.4-18.8-9.3-4.6-6.1-12.5-8.7-19.8-6.7-7.3 2.1-12.7 8.4-13.6 16-1.3 12.1-11.5 21.2-23.6 21.2-4.3 0-8.5-1.2-12.2-3.4-6.2-3.7-13.9-3.5-19.9 0.5-6 4-9.2 11.1-8.2 18.3 0.2 1.1 0.2 2.3 0.2 3.4 0 13.1-10.7 23.8-23.7 23.8-3.3 0-6.5-0.7-9.5-2-4.7-2.1-10-2.1-14.8-0.1-4.4 1.8-7.9 5.3-9.8 9.6-0.1 0.2-0.2 0.4-0.3 0.7 0 0.1-0.1 0.2-0.2 0.4s-0.1 0.3-0.2 0.5-0.1 0.3-0.2 0.5l-0.3 1v0.1c0 0.1 0 0.1-0.1 0.2l-0.2 0.6c-0.3 1-0.7 2.2-1.1 3.6-0.2 0.7-0.4 1.3-0.6 2-0.2 0.7-0.4 1.4-0.6 2.2l-0.6 2.4-0.3 1.5v0.1c-0.6 3.1-1.1 6.2-1.5 9.3-0.2 2.1-0.4 4.3-0.5 6.4-0.1 1.5-0.1 3.1-0.1 4.7v162.9c0 24.6 3.4 48.9 10.2 72.3 15.3 52.9 47.8 100.5 91.6 134 45.3 34.7 99.4 53 156.5 53s111.2-18.3 156.5-53c43.8-33.6 76.4-81.2 91.6-134 6.8-23.4 10.2-47.7 10.2-72.3V538.6c0.2-6.7-0.5-13.4-1.8-19.9z" fill="#2E0C08" p-id="15212"></path><path d="M511.8 868.5c-78.6 0-142.6-64.2-142.6-143.1 0-10.4 8.4-18.8 18.7-18.8 10.3 0 18.7 8.4 18.7 18.8 0 58.2 47.2 105.6 105.2 105.6S617 783.6 617 725.4c0-10.4 8.4-18.8 18.7-18.8 10.3 0 18.7 8.4 18.7 18.8 0 78.9-64 143.1-142.6 143.1z" fill="#2E0C08" p-id="15213"></path><path d="M511.8 666c32.6 0 59.1 26.6 59.1 59.4 0 32.7-26.5 59.4-59.1 59.4s-59.1-26.6-59.1-59.4c0-32.7 26.5-59.4 59.1-59.4z" fill="#2E0C08" p-id="15214"></path><path d="M782.2 696.5c1.1-10.3 10.3-17.7 20.6-16.6 13.1 1.5 25.8-5 32.4-16.5 6.6-11.4 5.8-25.7-2-36.4-3.9-5.3-4.7-12.2-2.2-18.3 2.5-6.1 8-10.4 14.4-11.4 13-2 23.7-11.6 27.1-24.3 3.4-12.8-1-26.4-11.3-34.7-5.1-4.1-7.7-10.6-6.8-17.1 0.9-6.5 5-12.1 11-14.7 12.1-5.3 19.9-17.3 19.9-30.5s-7.8-25.2-19.9-30.5c-6-2.6-10.2-8.2-11-14.7-0.9-6.5 1.7-13 6.8-17.1 10.3-8.3 14.7-21.9 11.3-34.7-3.4-12.8-14-22.3-27.1-24.3-6.5-1-11.9-5.3-14.4-11.4-2.5-6.1-1.7-13 2.2-18.3 7.8-10.7 8.6-25 2-36.4-6.6-11.5-19.3-17.9-32.4-16.5-6.5 0.7-12.9-2-16.9-7.2-4-5.2-5-12.1-2.6-18.2 4.8-12.3 1.9-26.4-7.5-35.7-9.3-9.3-23.3-12.3-35.6-7.5-6.1 2.4-13 1.4-18.2-2.6-5.2-4-7.9-10.4-7.2-16.9 1.4-13.2-5-25.9-16.4-32.5-11.4-6.6-25.6-5.8-36.3 2-5.3 3.9-12.2 4.7-18.2 2.2s-10.3-8-11.3-14.5c-2-13.1-11.5-23.8-24.3-27.2-12.7-3.4-26.3 1-34.5 11.4-4.1 5.1-10.5 7.7-17 6.9-6.5-0.9-12-5-14.7-11.1-5.3-12.1-17.3-20-30.4-20s-25.1 7.8-30.4 20c-2.6 6-8.2 10.2-14.7 11.1-6.5 0.9-12.9-1.7-17-6.9-8.3-10.3-21.8-14.8-34.5-11.4-12.7 3.4-22.2 14.1-24.3 27.2-1 6.5-5.3 12-11.3 14.5-6 2.5-12.9 1.7-18.2-2.2-10.6-7.8-24.9-8.6-36.3-2-11.4 6.6-17.9 19.4-16.4 32.5 0.7 6.5-2 12.9-7.2 16.9-5.2 4-12.1 5-18.2 2.6-12.3-4.8-26.3-1.9-35.6 7.5s-12.2 23.4-7.4 35.7c2.4 6.1 1.4 13-2.6 18.2-4 5.2-10.4 7.9-16.9 7.2-13.1-1.5-25.8 5-32.4 16.5-6.6 11.5-5.8 25.7 2 36.4 3.9 5.3 4.7 12.2 2.2 18.3-2.5 6.1-8 10.4-14.4 11.4-13 2-23.7 11.6-27.1 24.3-3.4 12.8 1 26.4 11.3 34.7 5.1 4.1 7.7 10.6 6.8 17.1-0.9 6.5-5 12.1-11 14.7-12.1 5.3-19.9 17.3-19.9 30.5 0 9.2-6.6 16.9-15.3 18.4 2.6 6.9 6.7 13.2 11.8 18.3 1.3-1.3 2.7-2.5 4.2-3.7 8.1-6.5 19.8-5.2 26.3 2.9s5.2 19.9-2.9 26.4c-10.3 8.3-14.7 21.9-11.3 34.7 3.4 12.8 14 22.3 27.1 24.3 6.5 1 11.9 5.3 14.4 11.4 2.5 6.1 1.7 13-2.2 18.3-7.8 10.7-8.6 25-2 36.4 6.6 11.5 19.3 17.9 32.4 16.5 10.3-1.1 19.5 6.3 20.6 16.6 0.1 1.1 0.1 2.1 0.1 3.2l11.9 0.7V538.6c0-1.6 0-3.1 0.1-4.7 0.1-2.1 0.3-4.3 0.5-6.4 0.3-3.1 0.8-6.2 1.5-9.3v-0.1l0.3-1.5 0.6-2.4c0.2-0.7 0.4-1.5 0.6-2.2 0.2-0.7 0.4-1.3 0.6-2 0.4-1.4 0.8-2.7 1.1-3.6l0.2-0.6c0-0.1 0-0.1 0.1-0.2v-0.1l0.3-1c0.1-0.2 0.1-0.3 0.2-0.5s0.1-0.3 0.2-0.5c0-0.1 0.1-0.2 0.2-0.4s0.2-0.4 0.3-0.7c1.9-4.3 5.4-7.8 9.8-9.6 4.7-2 10.1-1.9 14.8 0.1 3 1.3 6.2 2 9.5 2 13.1 0 23.7-10.7 23.7-23.8 0-1.1-0.1-2.3-0.2-3.4-1-7.2 2.2-14.3 8.2-18.3 6-4 13.8-4.2 19.9-0.5 3.7 2.2 7.9 3.4 12.2 3.4 12.1 0 22.2-9.1 23.6-21.2 0.8-7.6 6.2-13.9 13.6-16 7.3-2.1 15.2 0.6 19.8 6.7 4.5 5.9 11.4 9.3 18.8 9.3 10.4 0 19.4-6.7 22.6-16.6 2.3-7.2 8.7-12.3 16.2-12.9 7.5-0.7 14.7 3.3 18.2 10 4.1 7.9 12.2 12.8 21 12.8 8.9 0 16.9-4.9 21-12.8 3.5-6.7 10.7-10.6 18.2-10 7.5 0.7 13.9 5.8 16.2 13 3.2 9.9 12.2 16.5 22.6 16.5 7.4 0 14.3-3.4 18.8-9.3 4.6-6.1 12.5-8.7 19.9-6.7 7.4 2.1 12.7 8.4 13.6 16 1.3 12 11.5 21.1 23.6 21.1 4.3 0 8.5-1.2 12.2-3.4 6.2-3.7 13.9-3.5 19.9 0.5 6 4 9.2 11.1 8.2 18.3-0.2 1.1-0.2 2.3-0.2 3.4 0 13.1 10.7 23.8 23.7 23.8 3.3 0 6.5-0.7 9.5-2 0.3-0.1 0.7-0.3 1-0.4 0.1 0 0.2-0.1 0.3-0.1h0.1c0.5-0.2 1-0.3 1.5-0.4 0.1 0 0.2-0.1 0.3-0.1l1.5-0.3h0.3c0.5-0.1 1-0.1 1.5-0.1h2.1c0.5 0 1 0.1 1.5 0.2l1.5 0.3c0.2 0 0.3 0.1 0.5 0.1 0.4 0.1 0.8 0.2 1.2 0.4 0.1 0 0.3 0.1 0.4 0.1 0.4 0.1 0.8 0.3 1.2 0.5 0.1 0.1 0.3 0.1 0.4 0.2l1.2 0.6c0.1 0.1 0.3 0.1 0.4 0.2 0.4 0.2 0.8 0.5 1.2 0.7 0.1 0.1 0.2 0.1 0.3 0.2l1.2 0.9 0.2 0.2c0.4 0.3 0.8 0.7 1.1 1.1l0.1 0.1c0.4 0.4 0.8 0.8 1.1 1.3 0.4 0.5 0.7 1 1 1.5 0.3 0.5 0.6 1 0.9 1.6 0.4 0.7 0.7 1.5 1 2.3 1.7 4.9 3.1 9.8 4 14.6 0 0.1 0 0.2 0.1 0.3 1.3 6.5 1.9 13.2 1.9 19.8v161.8l11.9-0.7c0.2-1.1 0.2-2.1 0.3-3.2z" fill="#F67A6A" p-id="15215"></path><path d="M241.5 696.5c-1.1-10.3-10.4-17.7-20.6-16.6-13.1 1.5-25.8-5-32.4-16.5-6.6-11.4-5.8-25.7 2-36.4 3.9-5.3 4.7-12.2 2.2-18.3-2.5-6.1-8-10.4-14.4-11.4-13-2-23.7-11.6-27.1-24.3-3.4-12.8 1-26.4 11.3-34.7 8.1-6.5 9.3-18.3 2.9-26.4-6.5-8.1-18.2-9.4-26.3-2.9-1.5 1.2-2.8 2.4-4.2 3.7-18.8 17.8-26.6 44.6-19.9 70 5.1 19.1 17.8 34.8 34.5 43.9-5.4 18.3-3.3 38.4 6.6 55.5 12.7 22.1 36.1 35.5 61.1 35.4 2.6 0 5.2-0.1 7.8-0.4 9.2-1 16.1-8.6 16.6-17.6 0-0.9 0-1.9-0.1-3z" fill="#2E0C08" p-id="15216"></path><path d="M922.7 476c0-19.8-8.2-38.2-22-51.4 9.9-16.3 13.1-36.3 8-55.3-5.1-19.1-17.8-34.8-34.5-43.9 5.4-18.3 3.3-38.4-6.6-55.5-9.8-17.1-26.1-29-44.6-33.5 0.5-19.1-6.7-38-20.6-51.9-13.9-14-32.7-21.2-51.7-20.7-4.5-18.6-16.3-34.9-33.3-44.8-17.1-9.9-37.1-12-55.3-6.6-9.1-16.8-24.7-29.5-43.8-34.6-19-5.1-38.9-1.9-55.1 8C550.1 72 531.7 63.7 512 63.7c-19.7 0-38.1 8.2-51.2 22.1-16.2-10-36.1-13.1-55.1-8s-34.7 17.8-43.8 34.6c-18.2-5.4-38.3-3.3-55.3 6.6-17.1 9.9-28.9 26.2-33.4 44.8-19-0.5-37.8 6.8-51.8 20.7-13.9 14-21.1 32.9-20.6 51.9-18.5 4.5-34.8 16.4-44.6 33.5-9.9 17.1-12 37.2-6.6 55.5-16.7 9.1-29.4 24.8-34.5 43.9-5.1 19.1-1.9 39.1 8 55.3-13.8 13.2-22 31.6-22 51.4 0 10.4 8.4 18.8 18.7 18.8 1.2 0 2.3-0.1 3.4-0.3 8.7-1.6 15.3-9.2 15.3-18.4 0-13.2 7.8-25.2 19.9-30.5 6-2.6 10.2-8.2 11-14.7 0.9-6.5-1.7-13-6.8-17.1-10.3-8.3-14.7-21.9-11.3-34.7 3.4-12.8 14-22.3 27.1-24.3 6.5-1 11.9-5.3 14.4-11.4 2.5-6.1 1.7-13-2.2-18.3-7.8-10.7-8.6-25-2-36.4 6.6-11.5 19.3-17.9 32.4-16.5 6.5 0.7 12.9-2 16.9-7.2 4-5.2 5-12.1 2.6-18.2-4.8-12.3-1.9-26.4 7.4-35.7 9.3-9.4 23.3-12.3 35.6-7.5 6.1 2.4 13 1.4 18.2-2.6 5.2-4 7.9-10.4 7.2-16.9-1.4-13.2 5-25.9 16.4-32.5 11.4-6.6 25.6-5.8 36.3 2 5.3 3.9 12.2 4.7 18.2 2.2s10.3-8 11.3-14.5c2-13.1 11.5-23.8 24.3-27.2 12.7-3.4 26.3 1 34.5 11.4 4.1 5.1 10.5 7.7 17 6.9 6.5-0.9 12-5 14.7-11.1 5.3-12.1 17.3-20 30.4-20 13.2 0 25.1 7.8 30.4 20 2.6 6 8.2 10.2 14.7 11.1 6.5 0.9 12.9-1.7 17-6.9 8.3-10.3 21.8-14.8 34.5-11.4 12.7 3.4 22.2 14.1 24.3 27.2 1 6.5 5.3 12 11.3 14.5 6 2.5 12.9 1.7 18.2-2.2 10.6-7.8 24.9-8.6 36.3-2 11.4 6.6 17.9 19.4 16.4 32.5-0.7 6.5 2 12.9 7.2 16.9 5.2 4 12.1 5 18.2 2.6 12.3-4.8 26.3-1.9 35.6 7.5s12.2 23.4 7.5 35.7c-2.4 6.1-1.4 13 2.6 18.2 4 5.2 10.4 8 16.9 7.2 13.1-1.5 25.8 5 32.4 16.5 6.6 11.4 5.8 25.7-2 36.4-3.9 5.3-4.7 12.2-2.2 18.3 2.5 6.1 8 10.4 14.4 11.4 13 2 23.7 11.6 27.1 24.3 3.4 12.8-1 26.4-11.3 34.7-5.1 4.1-7.7 10.6-6.8 17.1 0.9 6.5 5 12.1 11 14.7 12.1 5.3 19.9 17.3 19.9 30.5s-7.8 25.2-19.9 30.5c-6 2.6-10.2 8.2-11 14.7-0.9 6.5 1.7 13 6.8 17.1 10.3 8.3 14.7 21.9 11.3 34.7-3.4 12.8-14 22.3-27.1 24.3-6.5 1-11.9 5.3-14.4 11.4-2.5 6.1-1.7 13 2.2 18.3 7.8 10.7 8.6 25 2 36.4-6.6 11.5-19.3 17.9-32.4 16.5-10.3-1.1-19.5 6.3-20.6 16.6-0.1 1.1-0.1 2.1-0.1 3.2 0.5 9 7.4 16.5 16.6 17.6 2.6 0.3 5.2 0.4 7.8 0.4 25 0 48.4-13.4 61.1-35.4 9.9-17.1 12-37.2 6.6-55.6 16.7-9.1 29.4-24.8 34.5-43.9s1.9-39.1-8-55.3c13.5-13.4 21.7-31.8 21.7-51.6z" fill="#2E0C08" p-id="15217"></path><path d="M490.1 725.4c0 12 9.8 21.8 21.8 21.8s21.8-9.8 21.8-21.8-9.8-21.8-21.8-21.8c-12.1 0-21.8 9.8-21.8 21.8z" fill="#F6442C" p-id="15218"></path><path d="M511.8 923.3c-97.8 0-185.1-65.8-212.3-160-5.8-20-8.7-40.8-8.7-61.9V538.6c0-1 0-2 0.1-3 0-1.1 0.1-2.2 0.2-3.2 1 0 2 0.1 3 0.1 27.3 0 50.4-18 58.3-42.8 1.8 0.2 3.7 0.2 5.5 0.2 20.8 0 39.4-10.4 50.4-26.6 7.8 3.6 16.5 5.5 25.4 5.5 16.6 0 31.9-6.6 43.1-17.8 10.1 7 22.2 11 34.9 11s24.8-3.9 34.9-11c11.2 11.1 26.5 17.8 43.1 17.8 8.9 0 17.6-1.9 25.4-5.5 11.1 16.2 29.6 26.6 50.4 26.6 1.9 0 3.7-0.1 5.5-0.3 7.8 24.8 31 42.9 58.3 42.9 1 0 2 0 3-0.1 0.2 2.1 0.3 4.2 0.3 6.3v162.9c0 21.1-2.9 41.9-8.7 61.9-27 94-114.3 159.8-212.1 159.8z" fill="#F2F2F2" p-id="15219"></path><path d="M511.8 784.8c32.6 0 59.1-26.6 59.1-59.4 0-32.7-26.5-59.4-59.1-59.4s-59.1 26.6-59.1 59.4c0 32.7 26.5 59.4 59.1 59.4z" fill="#2E0C08" p-id="15220"></path><path d="M533.6 725.4c0 12-9.8 21.8-21.8 21.8s-21.8-9.8-21.8-21.8 9.8-21.8 21.8-21.8 21.8 9.8 21.8 21.8z" fill="#F6442C" p-id="15221"></path><path d="M635.7 706.6c-10.3 0-18.7 8.4-18.7 18.8 0 58.2-47.2 105.6-105.2 105.6s-105.2-47.4-105.2-105.6c0-10.4-8.4-18.8-18.7-18.8-10.3 0-18.7 8.4-18.7 18.8 0 78.9 64 143.1 142.6 143.1s142.6-64.2 142.6-143.1c0-10.4-8.4-18.8-18.7-18.8zM388 617.4h10.7V631c0 10.4 8.4 18.8 18.7 18.8 10.3 0 18.7-8.4 18.7-18.8v-13.6h10.7c10.3 0 18.7-8.4 18.7-18.8s-8.4-18.8-18.7-18.8h-10.7v-13.7c0-10.4-8.4-18.8-18.7-18.8-10.3 0-18.7 8.4-18.7 18.8v13.7H388c-10.3 0-18.7 8.4-18.7 18.8s8.3 18.8 18.7 18.8zM660 579.9h-10.7v-13.7c0-10.4-8.4-18.8-18.7-18.8s-18.7 8.4-18.7 18.8v13.7h-10.8c-10.3 0-18.7 8.4-18.7 18.8s8.4 18.8 18.7 18.8h10.8V631c0 10.4 8.4 18.8 18.7 18.8s18.7-8.4 18.7-18.8v-13.6H660c10.3 0 18.7-8.4 18.7-18.8 0-10.3-8.4-18.7-18.7-18.7z" fill="#2E0C08" p-id="15222"></path></svg>