<?xml version="1.0" standalone="no"?><!DOCTYPE svg PUBLIC "-//W3C//DTD SVG 1.1//EN" "http://www.w3.org/Graphics/SVG/1.1/DTD/svg11.dtd"><svg t="1672299591438" class="icon" viewBox="0 0 1024 1024" version="1.1" xmlns="http://www.w3.org/2000/svg" p-id="15058" xmlns:xlink="http://www.w3.org/1999/xlink" width="200" height="200"><path d="M930.6 247.5c5.8-9.9 9.8-20.8 11.6-32.4 8-50.1-26.1-97.5-76.1-105.5-24.2-3.9-48.5 1.9-68.3 16.3-19.9 14.4-32.9 35.8-36.8 60-0.5 3.3-0.9 6.6-1 9.9-0.5-0.1-0.9-0.2-1.4-0.2-28.9-4.6-58.5 2.4-82.3 19.1-11-8.8-22.7-16.8-34.9-23.7-9.5-5.4-21.5-2-26.9 7.5-0.1 0.2-0.2 0.5-0.4 0.7-4.8 9.4-1.4 21 7.9 26.3 14.6 8.3 28.3 18.3 40.8 29.7 46 42.2 72.3 102.2 72.3 164.7V653.6c0 122.9-99.6 222.9-222.1 222.9S291 776.4 291 653.4V419.8c0-62.5 26.4-122.5 72.3-164.7 41-37.6 94.2-58.3 149.7-58.3 16 0 31.9 1.7 47.4 5.1 10.4 2.3 20.6-4.1 23.3-14.4 0.1-0.3 0.2-0.5 0.2-0.8 2.3-10.7-4.4-21.3-15.1-23.6-18.2-4-36.9-6-55.7-6-59.7 0-117.1 20.3-163.3 57.5-23.7-16.6-53.4-23.7-82.3-19.1-0.4 0.1-0.9 0.1-1.3 0.2-0.2-3.3-0.5-6.6-1-9.9-3.9-24.3-16.9-45.6-36.8-60.1-19.8-14.4-44.1-20.2-68.3-16.3-49.9 8-84.1 55.4-76.1 105.5 1.8 11.6 5.8 22.5 11.6 32.4-23.4 25.2-34.2 59.9-28.7 94.6 5 31.3 22.5 58.5 48.2 75.7-9.1 23-12 48.3-8.1 72.9 4.2 26.5 15.6 50.5 33.3 70.2-0.6 4.4-1 8.8-1 13.3 0 51.2 41.5 92.9 92.5 92.9 6.8 0 13.4-0.7 20-2.2 6.1 139.4 120.9 251 261.3 251 139.8 0 254.3-110.7 261.2-249.3 3.2 0.3 6.5 0.5 9.8 0.5 51 0 92.5-41.7 92.5-92.9 0-1.3 0-2.6-0.1-3.9 22.7-21 37.7-48.8 42.6-79.7 3.9-24.6 1.1-49.9-8.1-73 25.7-17.3 43.2-44.4 48.2-75.7 5.5-34.3-5.3-69-28.6-94.2z" fill="#2E0C08" p-id="15059"></path><path d="M560.4 202c-15.5-3.4-31.4-5.1-47.4-5.1-55.6 0-108.7 20.7-149.7 58.3-46 42.2-72.3 102.2-72.3 164.6v233.6c0 122.9 99.6 222.9 222.1 222.9s222.1-100 222.1-222.9V419.8c0-62.5-26.4-122.5-72.3-164.7-12.4-11.4-26.1-21.4-40.8-29.7-9.3-5.2-12.6-16.9-7.9-26.3-9.8-4.5-20-8.4-30.5-11.7-2.7 10.4-12.9 16.8-23.3 14.6z" fill="#FFE5CD" p-id="15060"></path><path d="M649.6 539c-10.9 0-19.7 8.9-19.7 19.8 0 11 8.8 19.8 19.7 19.8 10.9 0 19.7-8.9 19.7-19.8 0.1-11-8.7-19.8-19.7-19.8z" fill="#2E0C08" p-id="15061"></path><path d="M395.7 558.8c0-10.9-8.8-19.8-19.7-19.8-10.9 0-19.7 8.9-19.7 19.8 0 11 8.8 19.8 19.7 19.8 10.8 0 19.7-8.9 19.7-19.8z" fill="#2E0C08" p-id="15062"></path><path d="M133.9 265.9c4.5-3.4 7.3-8.5 7.8-14.2 0.5-5.6-1.5-11.2-5.3-15.3-7.2-7.6-11.9-17.2-13.5-27.6-4.5-28.6 14.9-55.5 43.3-60.1 13.8-2.2 27.6 1.1 38.9 9.3 11.3 8.2 18.7 20.4 21 34.2 1.4 8.6 0.6 17.5-2.3 25.7-2.7 7.7-0.5 16.2 5.7 21.6 6.1 5.3 14.9 6.4 22.1 2.6 7-3.6 14.4-6.1 22.2-7.4 16.2-2.6 32.3 0.3 46.3 7.9-43.8 48.2-68.5 111.5-68.5 177.1v63.7c-6.4-1.4-13-2.1-19.7-2.1-29.6 0-56.7 14.3-73.8 37-6-10.3-10-21.8-12-33.9-3.6-22.3 0.7-45.4 12.1-65 2.8-4.9 3.5-10.8 1.7-16.1-1.8-5.4-5.7-9.7-10.9-12-23-10-39-30.8-43-55.5-4.4-26.7 6.3-53.5 27.9-69.9z" fill="#A6CB70" p-id="15063"></path><path d="M178.8 574.3c0-4.8 0.7-9.6 1.9-14.3 6.3-22.9 27.3-38.9 51.1-38.9 6.8 0 13.5 1.3 19.7 3.8v98.8c-6.2 2.5-12.9 3.8-19.7 3.8-29.2 0-53-23.8-53-53.2zM784.1 627.5c-3.2 0-6.4-0.3-9.5-0.9V521.9c3.1-0.6 6.3-0.9 9.5-0.9 26 0 48 18.6 52.3 44.5 0.5 2.8 0.7 5.7 0.7 8.8 0 29.4-23.8 53.2-53 53.2z" fill="#FFE5CD" p-id="15064"></path><path d="M920.2 335.8c-4 24.8-20 45.5-43 55.5-5.2 2.3-9.1 6.6-10.9 12-1.8 5.4-1.1 11.3 1.7 16.1 11.3 19.6 15.6 42.7 12.1 65-2.4 15.1-8.3 29.3-16.9 41.5-16.3-27.1-45.8-44.6-79.1-44.6-3.2 0-6.3 0.2-9.5 0.5v-62.1c0-65.6-24.7-129-68.5-177.1 13.9-7.7 30-10.5 46.3-7.9 7.8 1.3 15.3 3.8 22.2 7.4 7.2 3.8 16 2.7 22.1-2.6 6.1-5.3 8.4-13.9 5.7-21.6-2.9-8.2-3.7-17.1-2.3-25.7 2.2-13.8 9.6-26 21-34.2 11.3-8.2 25.1-11.5 38.9-9.3 28.5 4.6 47.9 31.5 43.4 60.1-1.7 10.4-6.3 20-13.5 27.6-3.9 4.1-5.8 9.6-5.3 15.3 0.5 5.6 3.3 10.8 7.8 14.2 21.3 16.3 32.1 43.2 27.8 69.9z" fill="#A6CB70" p-id="15065"></path><path d="M513 705.9c39.3 0 71.3-32.1 71.3-71.6 0-39.5-32-71.6-71.3-71.6s-71.3 32.1-71.3 71.6c0.1 39.5 32 71.6 71.3 71.6z" fill="#2E0C08" p-id="15066"></path><path d="M513 602.4c17.5 0 31.8 14.3 31.8 31.9 0 17.6-14.3 31.9-31.8 31.9s-31.8-14.3-31.8-31.9c0-17.5 14.3-31.9 31.8-31.9z" fill="#F6442C" p-id="15067"></path><path d="M429.6 451.8c-3.7-10.3-15.1-15.6-25.3-11.8l-72.9 26.8c-10.2 3.8-15.5 15.1-11.7 25.4 2.9 8 10.5 13 18.5 13 2.3 0 4.5-0.4 6.8-1.2l72.9-26.8c10.1-3.7 15.4-15.1 11.7-25.4zM600.1 491.9h77.7c10.9 0 19.7-8.9 19.7-19.8s-8.8-19.8-19.7-19.8h-77.7c-10.9 0-19.7 8.9-19.7 19.8-0.1 10.9 8.8 19.8 19.7 19.8zM507.9 723.3c-50.4 0.1-98.1 22.2-130.8 60.8-7.1 8.3-6.1 20.8 2.2 27.9 8.3 7.1 20.8 6.1 27.8-2.2 25.2-29.7 62-46.8 100.7-46.9 38.8 0.1 75.6 17.1 100.8 46.9 3.9 4.6 9.5 7 15 7 4.5 0 9.1-1.6 12.8-4.7 8.3-7.1 9.3-19.6 2.2-27.9-32.6-38.6-80.3-60.8-130.7-60.9z" fill="#2E0C08" p-id="15068"></path></svg>