<?xml version="1.0" standalone="no"?><!DOCTYPE svg PUBLIC "-//W3C//DTD SVG 1.1//EN" "http://www.w3.org/Graphics/SVG/1.1/DTD/svg11.dtd"><svg t="1672299906058" class="icon" viewBox="0 0 1024 1024" version="1.1" xmlns="http://www.w3.org/2000/svg" p-id="17738" xmlns:xlink="http://www.w3.org/1999/xlink" width="200" height="200"><path d="M662.4 336s90.88-79.04 214.88 16c0 0-132.8 158.08-214.88-16z" fill="#A5DC69" p-id="17739"></path><path d="M791.52 360.48h-2.08a246.4 246.4 0 0 0-117.44-2.56 8 8 0 1 1-4.48-16 258.4 258.4 0 0 1 126.4 2.08 8 8 0 0 1-2.08 16z" fill="#7B365D" p-id="17740"></path><path d="M862.08 368.96c17.44-14.4 16-16 16-16C753.44 257.6 662.4 336 662.4 336c1.44 3.04 1.76 1.12 3.36 4a169.92 169.92 0 0 1 196.32 28.96z" fill="#FFFFFF" p-id="17741"></path><path d="M877.28 360.32a8 8 0 0 1-4.8-1.6 229.76 229.76 0 0 0-67.84-36.8 8 8 0 1 1 4.96-16 245.44 245.44 0 0 1 72.64 39.36 8 8 0 0 1-4.8 14.4z" fill="#7B365D" p-id="17742"></path><path d="M760.8 425.92a90.72 90.72 0 0 1-11.84 0c-37.76-4.96-69.44-33.6-93.76-85.12l-2.56-5.44 4.64-4a158.88 158.88 0 0 1 113.44-32 8 8 0 0 1-1.44 16 147.04 147.04 0 0 0-96 24.64c21.44 42.72 48 66.4 78.56 70.4 60.48 8 119.52-61.6 120.16-62.24a8 8 0 0 1 12.16 10.24c-3.2 1.92-59.2 67.52-123.36 67.52z" fill="#7B365D" p-id="17743"></path><path d="M660 397.76a9.92 9.92 0 0 1 3.68-14.24 32 32 0 0 0 10.24-48 32 32 0 0 0-2.4-2.88 32 32 0 0 0-51.68 7.84 9.92 9.92 0 0 1-14.24 3.68c-92.64-61.28-226.88-38.72-320 53.6s-114.88 226.56-53.6 320a9.92 9.92 0 0 1-3.68 14.24 32 32 0 0 0-7.84 5.76 32 32 0 0 0 0 45.92 32 32 0 0 0 51.68-7.84 9.92 9.92 0 0 1 14.24-3.68c92.64 61.28 226.88 38.72 320-53.6s114.88-228.16 53.6-320.8z" fill="#FFEF48" p-id="17744"></path><path d="M660 397.76a9.92 9.92 0 0 1 3.68-14.24 32 32 0 0 0 10.24-48 77.76 77.76 0 0 1-22.08 26.88 33.76 33.76 0 0 0-11.84 34.88A250.08 250.08 0 0 1 576 640c-119.84 129.76-277.6 64-305.12 92.96a68.32 68.32 0 0 1-58.88 22.24 32 32 0 0 0 60.8 19.68 9.92 9.92 0 0 1 14.24-3.68c92.64 61.28 226.88 38.72 320-53.6s114.24-227.2 52.96-319.84z" fill="#FFBB46" p-id="17745"></path><path d="M232.64 716.16c-61.28-92.64-8.64-211.68 83.84-304 80-80 192.8-108 281.6-73.12-92.16-55.52-221.76-32-311.84 58.08-92.32 92.32-114.88 226.56-53.6 320" fill="#FFFFFF" p-id="17746"></path><path d="M369.12 433.44a8 8 0 0 1-5.12-14.08 323.04 323.04 0 0 1 30.08-22.56 306.4 306.4 0 0 1 58.72-30.4 8 8 0 0 1 5.76 14.88 289.92 289.92 0 0 0-55.68 28.8A305.92 305.92 0 0 0 374.24 432a8 8 0 0 1-5.12 1.44zM313.44 491.36a8 8 0 0 1-6.24-12.96c7.52-9.28 16-18.56 24.16-27.68a8 8 0 1 1 11.68 10.88c-8.16 8.8-16 17.76-23.36 26.88a8 8 0 0 1-6.24 2.88z" fill="#FFFFFF" p-id="17747"></path><path d="M405.28 812.96a220.32 220.32 0 0 1-122.56-35.68h-2.72a40.64 40.64 0 0 1-7.2 9.76 40.16 40.16 0 0 1-28.64 11.84 40.48 40.48 0 0 1-18.88-76.32c1.12-1.76 0.96-2.4 0-2.72-64-96-40.48-234.24 54.56-329.28a8 8 0 0 1 11.36 11.36c-89.76 89.76-112 219.68-52.64 309.12a17.92 17.92 0 0 1-6.56 25.76 24.48 24.48 0 0 0 12.16 47.2 24.48 24.48 0 0 0 21.6-13.12 17.92 17.92 0 0 1 25.76-6.56c89.44 59.2 219.36 37.12 309.12-52.64s112-219.68 52.64-309.12a17.92 17.92 0 0 1 6.56-25.76 24.32 24.32 0 0 0 7.68-36.8l-1.76-2.24a25.12 25.12 0 0 0-34.56 0 24.32 24.32 0 0 0-4.32 5.92 17.92 17.92 0 0 1-25.76 6.56 222.08 222.08 0 0 0-199.2-17.76 8 8 0 0 1-5.44-15.04A238.08 238.08 0 0 1 609.92 336h2.72a40.16 40.16 0 0 1 7.2-9.76 41.44 41.44 0 0 1 57.28 0 26.72 26.72 0 0 1 2.4 2.88 40.64 40.64 0 0 1-2.4 54.4 40.16 40.16 0 0 1-9.76 7.2l-7.36 7.2 6.72-4.48c64 96 40.48 234.24-54.56 329.28a296.96 296.96 0 0 1-206.88 90.24z m-80-440.96a8 8 0 0 1-4.64-14.56c8.16-5.92 16-11.36 25.28-16q7.2-4.32 14.72-8a8 8 0 1 1 7.36 14.24q-7.04 3.68-13.92 7.68c-8.16 4.8-16 10.08-24 16a8 8 0 0 1-5.28 0.64z" fill="#7B365D" p-id="17748"></path><path d="M358.65185 764.023597m-3.734524 8.495395a9.28 9.28 0 1 0 7.469048-16.990789 9.28 9.28 0 1 0-7.469048 16.990789Z" fill="#7B365D" p-id="17749"></path><path d="M395.293072 769.817469m-3.734524 8.495395a9.28 9.28 0 1 0 7.469048-16.990789 9.28 9.28 0 1 0-7.469048 16.990789Z" fill="#7B365D" p-id="17750"></path><path d="M434.312117 768.537367m-3.734524 8.495395a9.28 9.28 0 1 0 7.469048-16.99079 9.28 9.28 0 1 0-7.469048 16.99079Z" fill="#7B365D" p-id="17751"></path><path d="MNaN NaNmNaN NaNaNaN NaN NaN 1 0 NaN NaN NaN NaN NaN 1 0 NaN NaNZ" fill="#7B365D" p-id="17752"></path><path d="M446.35516 737.858935m-2.77819 8.854381a9.28 9.28 0 1 0 5.556379-17.708762 9.28 9.28 0 1 0-5.556379 17.708762Z" fill="#7B365D" p-id="17753"></path><path d="M484.301636 726.662991m-2.778189 8.854381a9.28 9.28 0 1 0 5.556379-17.708762 9.28 9.28 0 1 0-5.556379 17.708762Z" fill="#7B365D" p-id="17754"></path><path d="M508.810172 742.991583m-3.734524 8.495395a9.28 9.28 0 1 0 7.469048-16.990789 9.28 9.28 0 1 0-7.469048 16.990789Z" fill="#7B365D" p-id="17755"></path><path d="M541.086128 724.481222m-3.734524 8.495395a9.28 9.28 0 1 0 7.469048-16.99079 9.28 9.28 0 1 0-7.469048 16.99079Z" fill="#7B365D" p-id="17756"></path><path d="M473.533683 757.914405m-4.764738 10.838952a11.84 11.84 0 1 0 9.529475-21.677903 11.84 11.84 0 1 0-9.529475 21.677903Z" fill="#7B365D" p-id="17757"></path><path d="M665.76 336a8 8 0 0 1-3.2-16A119.84 119.84 0 0 0 720 253.92a8 8 0 1 1 15.04 5.6 133.44 133.44 0 0 1-65.44 75.04 8 8 0 0 1-3.84 1.44z" fill="#7B365D" p-id="17758"></path></svg>