<?xml version="1.0" standalone="no"?><!DOCTYPE svg PUBLIC "-//W3C//DTD SVG 1.1//EN" "http://www.w3.org/Graphics/SVG/1.1/DTD/svg11.dtd"><svg t="1672299619712" class="icon" viewBox="0 0 1024 1024" version="1.1" xmlns="http://www.w3.org/2000/svg" p-id="16176" xmlns:xlink="http://www.w3.org/1999/xlink" width="200" height="200"><path d="M358.4 0C160.4608 0 0 160.4608 0 358.4v563.2a102.4 102.4 0 0 0 102.4 102.4h563.2c197.9392 0 358.4-160.4608 358.4-358.4V358.4c0-197.9392-160.4608-358.4-358.4-358.4H358.4z m153.6 179.2c21.4016 0 38.7584 17.3568 38.7584 38.7584v31.5648h201.5232a35.5328 35.5328 0 0 1 0 71.0656h-201.5232v65.0752h245.248a36.6592 36.6592 0 1 1 0 73.3184h-101.632a924.3648 924.3648 0 0 0-30.4128 81.536h87.1936a35.9168 35.9168 0 1 1 0 71.808h-200.3968v65.0752h257.3824a36.6592 36.6592 0 1 1 0 73.3184H550.7584v80.9216a38.7584 38.7584 0 0 1-77.5168 0v-80.9216H215.8592a36.6592 36.6592 0 1 1 0-73.3184h257.3824v-65.0752h-200.3968a35.9168 35.9168 0 0 1 0-71.808h90.24a412.5696 412.5696 0 0 1-36.48-81.536H228.0192a36.6592 36.6592 0 0 1 0-73.3184h245.248v-65.0752h-201.5488a35.5328 35.5328 0 0 1 0-71.0656h201.5232V217.9584C473.2416 196.5568 490.5984 179.2 512 179.2z m-104.0896 279.7824c7.6032 27.648 19.7376 54.6048 34.944 81.536h142.08c9.1136-28.416 18.9952-56.1152 28.1088-81.536h-205.1328z" p-id="16177"></path></svg>