<?xml version="1.0" standalone="no"?><!DOCTYPE svg PUBLIC "-//W3C//DTD SVG 1.1//EN" "http://www.w3.org/Graphics/SVG/1.1/DTD/svg11.dtd"><svg t="1672299607740" class="icon" viewBox="0 0 1024 1024" version="1.1" xmlns="http://www.w3.org/2000/svg" p-id="15668" xmlns:xlink="http://www.w3.org/1999/xlink" width="200" height="200"><path d="M665.6 0c197.9392 0 358.4 160.4608 358.4 358.4v563.2a102.4 102.4 0 0 1-102.4 102.4H358.4C160.4608 1024 0 863.5392 0 665.6V358.4C0 160.4608 160.4608 0 358.4 0h307.2z m-153.6 179.2c-21.4016 0-38.7584 17.3568-38.7584 38.7584v31.5648h-201.5232a35.5328 35.5328 0 0 0 0 71.0656h201.5232v65.0752h-245.248a36.6592 36.6592 0 1 0 0 73.3184h101.632c10.6496 25.4208 21.2992 52.352 30.4128 81.536h-87.1936a35.9168 35.9168 0 1 0 0 71.808h200.3968v65.0752H215.8592a36.6592 36.6592 0 1 0 0 73.3184h257.3824v80.9216a38.7584 38.7584 0 0 0 77.5168 0v-80.9216h257.3824a36.6592 36.6592 0 1 0 0-73.3184H550.7584v-65.0752h200.3968a35.9168 35.9168 0 0 0 0-71.808h-90.24a412.5696 412.5696 0 0 0 36.48-81.536h98.5856a36.6592 36.6592 0 0 0 0-73.3184h-245.248v-65.0752h201.5488a35.5328 35.5328 0 0 0 0-71.0656h-201.5232V217.9584C550.7584 196.5568 533.4016 179.2 512 179.2z m104.0896 279.7824c-7.6032 27.648-19.7376 54.6048-34.944 81.536h-142.08a2540.928 2540.928 0 0 0-28.1088-81.536h205.1328z" p-id="15669"></path></svg>