<?xml version="1.0" standalone="no"?><!DOCTYPE svg PUBLIC "-//W3C//DTD SVG 1.1//EN" "http://www.w3.org/Graphics/SVG/1.1/DTD/svg11.dtd"><svg t="1672299502750" class="icon" viewBox="0 0 1024 1024" version="1.1" xmlns="http://www.w3.org/2000/svg" p-id="7884" xmlns:xlink="http://www.w3.org/1999/xlink" width="200" height="200"><path d="M323 556c-2.76 0-5 2.01-5 4.5 0 0.17 0.03 0.32 0.05 0.48 0.02 0.13 0.04 0.28 0.06 0.45 0.35 2.63 1.61 10.11 4.89 12.56 3.27-2.46 4.54-9.93 4.89-12.56 0.02-0.17 0.04-0.33 0.06-0.45 0.02-0.16 0.05-0.32 0.05-0.48 0-2.49-2.24-4.5-5-4.5zM325 509c-2.76 0-5 2.01-5 4.5 0 0.17 0.03 0.32 0.05 0.48 0.02 0.13 0.04 0.28 0.06 0.45 0.35 2.63 1.61 10.11 4.89 12.56 3.27-2.46 4.54-9.93 4.89-12.56 0.02-0.17 0.04-0.33 0.06-0.45 0.02-0.16 0.05-0.32 0.05-0.48 0-2.49-2.24-4.5-5-4.5z" fill="#333333" p-id="7885"></path><path d="M781.84 119.76c8.45 6.81 16.22 14.42 23.2 22.89 93.8 113.81 12.62 335.67-181.34 495.52s-427.23 197.18-521.03 83.36c-3.55-4.31-6.82-8.79-9.87-13.4 51.45 93.32 135.22 169.42 242.85 209.68 239.21 89.46 505.65-31.93 595.11-271.14 72.58-194.06 6.37-406.04-148.92-526.91z" fill="#51CD7A" p-id="7886"></path><path d="M741.19 460.33C831.11 592.81 847 730.27 819.56 816.34c121.47-146.6 168.22-436.35-51.98-619.66 52.87 63.22 40.88 159.21-26.39 263.65z" fill="#92DD98" p-id="7887"></path><path d="M180.42 759.84c-27.55-10.31-50.21-26.08-67.35-46.87-2.31-2.81-4.59-5.82-6.79-8.97-1.27-1.82-2.48-3.8-3.69-6.05l-0.29-0.53c-18.5-34.39-27.04-72.51-24.62-110.08C85 474.1 167.34 339.63 292.58 236.41c147.08-121.22 321.77-174.29 434.7-132.05 14.32 5.35 27.45 12.26 39.05 20.54 2.28 1.7 4.77 3.58 7.24 5.5a146.67 146.67 0 0 1 21.08 20.83c42.21 51.21 47.53 128.38 14.99 217.3-33.44 91.38-102.51 183.45-194.5 259.26-147.09 121.23-321.79 174.3-434.71 132.07 0-0.01 0-0.01-0.01-0.02z" fill="#FF616A" p-id="7888"></path><path d="M177.81 769c-6.38-2.48-12.56-5.26-18.53-8.32 174.8 139.39 417.14 172.15 557.84 129.73-81.8-3.27-205.99-43.28-325.86-123.84-80.17 23.66-155.05 25.1-213.45 2.43z" fill="#92DD98" p-id="7889"></path><path d="M722.57 116.97c13.12 4.91 25.14 11.21 35.73 18.73 2.29 1.71 4.57 3.43 6.82 5.18 7.07 5.71 13.51 12.07 19.14 18.91 39.04 47.37 43.56 119.86 12.73 204.11-32.63 89.16-100.25 179.19-190.41 253.5-72.1 59.43-151.51 102.94-229.63 125.83-73.23 21.46-141.35 22.88-191.81 4.01-25.3-9.46-46.05-23.87-61.67-42.82a132.14 132.14 0 0 1-6.14-8.11c-0.96-1.37-1.9-2.92-2.9-4.77l-0.17-0.31c-17.4-32.34-25.4-67.96-23.13-103 7.08-109.65 87.55-240.47 210.02-341.41 72.1-59.42 151.5-102.93 229.62-125.82 73.22-21.48 141.34-22.9 191.8-4.03M732 91.74C617.98 49.1 438.53 98.66 284.01 226.01 151.41 335.3 71.53 473.56 64.24 586.47c-2.63 40.8 6.92 81.49 26.29 117.5 0.06 0.12 0.13 0.24 0.19 0.36 1.37 2.54 2.86 5.02 4.51 7.38 2.34 3.36 4.82 6.64 7.44 9.82 19.07 23.14 43.92 40.04 73.02 50.92 114.03 42.65 293.49-6.93 448.01-134.29 193.95-159.85 275.14-381.71 181.34-495.52-6.98-8.47-14.75-16.08-23.2-22.89-2.53-1.97-5.1-3.91-7.68-5.83-12.73-9.07-26.86-16.46-42.16-22.18z" fill="#F6FAF4" p-id="7890"></path><path d="M683.04 582.79a810.222 810.222 0 0 1-57.89 52.6c-30.93 25.49-62.81 47.98-94.99 67.39 116.33 113.08 213.16 174.1 233.62 160.27 21.92-14.91-6.34-129.67-80.74-280.26z" fill="#92DD98" p-id="7891"></path><path d="M266.95 345c-5.01 0-9.08 3.66-9.08 8.17 0 0.3 0.06 0.58 0.1 0.88 0.03 0.23 0.06 0.51 0.11 0.83 0.64 4.78 2.93 18.35 8.87 22.8 5.94-4.46 8.24-18.02 8.87-22.8 0.04-0.31 0.08-0.59 0.11-0.83 0.04-0.29 0.1-0.58 0.1-0.88-0.01-4.51-4.07-8.17-9.08-8.17zM457.54 306.88c-5.01 0-9.08 3.66-9.08 8.17 0 0.3 0.06 0.58 0.1 0.88 0.03 0.23 0.06 0.51 0.11 0.83 0.64 4.78 2.93 18.35 8.87 22.8 5.94-4.46 8.24-18.02 8.87-22.8 0.04-0.31 0.08-0.59 0.11-0.83 0.04-0.29 0.1-0.58 0.1-0.88 0-4.51-4.06-8.17-9.08-8.17zM370.41 410.35c-5.01 0-9.08 3.66-9.08 8.17 0 0.3 0.06 0.58 0.1 0.88 0.03 0.23 0.06 0.51 0.11 0.83 0.64 4.78 2.93 18.35 8.87 22.8 5.94-4.46 8.24-18.02 8.87-22.8 0.04-0.31 0.08-0.59 0.11-0.83 0.04-0.29 0.1-0.58 0.1-0.88 0-4.51-4.06-8.17-9.08-8.17zM319.59 288.73c-5.01 0-9.08 3.66-9.08 8.17 0 0.3 0.06 0.58 0.1 0.88 0.03 0.23 0.06 0.51 0.11 0.83 0.64 4.78 2.93 18.35 8.87 22.8 5.94-4.46 8.24-18.02 8.87-22.8 0.04-0.31 0.08-0.59 0.11-0.83 0.04-0.29 0.1-0.58 0.1-0.88-0.01-4.51-4.07-8.17-9.08-8.17zM466.62 266.95c-5.01 0-9.08 3.66-9.08 8.17 0 0.3 0.06 0.58 0.1 0.88 0.03 0.23 0.06 0.51 0.11 0.83 0.64 4.78 2.93 18.35 8.87 22.8 5.94-4.46 8.24-18.02 8.87-22.8 0.04-0.31 0.08-0.59 0.11-0.83 0.04-0.29 0.1-0.58 0.1-0.88 0-4.52-4.07-8.17-9.08-8.17zM486.59 366.78c-5.01 0-9.08 3.66-9.08 8.17 0 0.3 0.06 0.58 0.1 0.88 0.03 0.23 0.06 0.51 0.11 0.83 0.64 4.78 2.93 18.35 8.87 22.8 5.94-4.46 8.24-18.02 8.87-22.8 0.04-0.31 0.08-0.59 0.11-0.83 0.04-0.29 0.1-0.58 0.1-0.88-0.01-4.51-4.07-8.17-9.08-8.17zM468.44 190.71c-5.01 0-9.08 3.66-9.08 8.17 0 0.3 0.06 0.58 0.1 0.88 0.03 0.23 0.06 0.51 0.11 0.83 0.64 4.78 2.93 18.35 8.87 22.8 5.94-4.46 8.24-18.02 8.87-22.8 0.04-0.31 0.08-0.59 0.11-0.83 0.04-0.29 0.1-0.58 0.1-0.88-0.01-4.51-4.07-8.17-9.08-8.17zM573.72 239.72c-5.01 0-9.08 3.66-9.08 8.17 0 0.3 0.06 0.58 0.1 0.88 0.03 0.23 0.06 0.51 0.11 0.83 0.64 4.78 2.93 18.35 8.87 22.8 5.94-4.46 8.24-18.02 8.87-22.8 0.04-0.31 0.08-0.59 0.11-0.83 0.03-0.29 0.1-0.58 0.1-0.88-0.01-4.51-4.07-8.17-9.08-8.17zM582.79 150.77c-5.01 0-9.08 3.66-9.08 8.17 0 0.3 0.06 0.58 0.1 0.88 0.03 0.23 0.06 0.51 0.11 0.83 0.64 4.78 2.93 18.35 8.87 22.8 5.94-4.46 8.24-18.02 8.87-22.8 0.04-0.31 0.08-0.59 0.11-0.83 0.04-0.29 0.1-0.58 0.1-0.88 0-4.51-4.06-8.17-9.08-8.17zM673.55 139.88c-5.01 0-9.08 3.66-9.08 8.17 0 0.3 0.06 0.58 0.1 0.88 0.03 0.23 0.06 0.51 0.11 0.83 0.64 4.78 2.93 18.35 8.87 22.8 5.94-4.46 8.24-18.02 8.87-22.8 0.04-0.31 0.08-0.59 0.11-0.83 0.04-0.29 0.1-0.58 0.1-0.88 0-4.51-4.06-8.17-9.08-8.17zM689.89 252.43c-5.01 0-9.08 3.66-9.08 8.17 0 0.3 0.06 0.58 0.1 0.88 0.03 0.23 0.06 0.51 0.11 0.83 0.64 4.78 2.93 18.35 8.87 22.8 5.94-4.46 8.24-18.02 8.87-22.8 0.04-0.31 0.08-0.59 0.11-0.83 0.04-0.29 0.1-0.58 0.1-0.88 0-4.52-4.07-8.17-9.08-8.17zM744.35 196.15c-5.01 0-9.08 3.66-9.08 8.17 0 0.3 0.06 0.58 0.1 0.88 0.03 0.23 0.06 0.51 0.11 0.83 0.64 4.78 2.93 18.35 8.87 22.8 5.94-4.46 8.24-18.02 8.87-22.8 0.04-0.31 0.08-0.59 0.11-0.83 0.04-0.29 0.1-0.58 0.1-0.88-0.01-4.51-4.07-8.17-9.08-8.17zM728.01 305.07c-5.01 0-9.08 3.66-9.08 8.17 0 0.3 0.06 0.58 0.1 0.88 0.03 0.23 0.06 0.51 0.11 0.83 0.64 4.78 2.93 18.35 8.87 22.8 5.94-4.46 8.24-18.02 8.87-22.8 0.04-0.31 0.08-0.59 0.11-0.83 0.04-0.29 0.1-0.58 0.1-0.88 0-4.52-4.07-8.17-9.08-8.17zM706.23 354.08c-5.01 0-9.08 3.66-9.08 8.17 0 0.3 0.06 0.58 0.1 0.88 0.03 0.23 0.06 0.51 0.11 0.83 0.64 4.78 2.93 18.35 8.87 22.8 5.94-4.46 8.24-18.02 8.87-22.8 0.04-0.31 0.08-0.59 0.11-0.83 0.03-0.29 0.1-0.58 0.1-0.88-0.01-4.52-4.07-8.17-9.08-8.17zM617.28 332.29c-5.01 0-9.08 3.66-9.08 8.17 0 0.3 0.06 0.58 0.1 0.88 0.03 0.23 0.06 0.51 0.11 0.83 0.64 4.78 2.93 18.35 8.87 22.8 5.94-4.46 8.24-18.02 8.87-22.8 0.04-0.31 0.08-0.59 0.11-0.83 0.04-0.29 0.1-0.58 0.1-0.88 0-4.51-4.07-8.17-9.08-8.17zM580.98 386.75c-5.01 0-9.08 3.66-9.08 8.17 0 0.3 0.06 0.58 0.1 0.88 0.03 0.23 0.06 0.51 0.11 0.83 0.64 4.78 2.93 18.35 8.87 22.8 5.94-4.46 8.24-18.02 8.87-22.8 0.04-0.31 0.08-0.59 0.11-0.83 0.04-0.29 0.1-0.58 0.1-0.88-0.01-4.51-4.07-8.17-9.08-8.17zM588.24 477.51c-5.01 0-9.08 3.66-9.08 8.17 0 0.3 0.06 0.58 0.1 0.88 0.03 0.23 0.06 0.51 0.11 0.83 0.64 4.78 2.93 18.35 8.87 22.8 5.94-4.46 8.24-18.02 8.87-22.8 0.04-0.31 0.08-0.59 0.11-0.83 0.04-0.29 0.1-0.58 0.1-0.88-0.01-4.51-4.07-8.17-9.08-8.17zM510.18 490.22c-5.01 0-9.08 3.66-9.08 8.17 0 0.3 0.06 0.58 0.1 0.88 0.03 0.23 0.06 0.51 0.11 0.83 0.64 4.78 2.93 18.35 8.87 22.8 5.94-4.46 8.24-18.02 8.87-22.8 0.04-0.31 0.08-0.59 0.11-0.83 0.04-0.29 0.1-0.58 0.1-0.88 0-4.52-4.06-8.17-9.08-8.17zM497.48 555.57c-5.01 0-9.08 3.66-9.08 8.17 0 0.3 0.06 0.58 0.1 0.88 0.03 0.23 0.06 0.51 0.11 0.83 0.64 4.78 2.93 18.35 8.87 22.8 5.94-4.46 8.24-18.02 8.87-22.8 0.04-0.31 0.08-0.59 0.11-0.83 0.04-0.29 0.1-0.58 0.1-0.88-0.01-4.52-4.07-8.17-9.08-8.17zM413.98 462.99c-5.01 0-9.08 3.66-9.08 8.17 0 0.3 0.06 0.58 0.1 0.88 0.03 0.23 0.06 0.51 0.11 0.83 0.64 4.78 2.93 18.35 8.87 22.8 5.94-4.46 8.24-18.02 8.87-22.8 0.04-0.31 0.08-0.59 0.11-0.83 0.04-0.29 0.1-0.58 0.1-0.88-0.01-4.51-4.07-8.17-9.08-8.17zM413.98 626.36c-5.01 0-9.08 3.66-9.08 8.17 0 0.3 0.06 0.58 0.1 0.88 0.03 0.23 0.06 0.51 0.11 0.83 0.64 4.78 2.93 18.35 8.87 22.8 5.94-4.46 8.24-18.02 8.87-22.8 0.04-0.31 0.08-0.59 0.11-0.83 0.04-0.29 0.1-0.58 0.1-0.88-0.01-4.51-4.07-8.17-9.08-8.17zM357.71 602.76c-5.01 0-9.08 3.66-9.08 8.17 0 0.3 0.06 0.58 0.1 0.88 0.03 0.23 0.06 0.51 0.11 0.83 0.64 4.78 2.93 18.35 8.87 22.8 5.94-4.46 8.24-18.02 8.87-22.8 0.04-0.31 0.08-0.59 0.11-0.83 0.04-0.29 0.1-0.58 0.1-0.88-0.01-4.51-4.07-8.17-9.08-8.17zM337.74 517.45c-5.01 0-9.08 3.66-9.08 8.17 0 0.3 0.06 0.58 0.1 0.88 0.03 0.23 0.06 0.51 0.11 0.83 0.64 4.78 2.93 18.35 8.87 22.8 5.94-4.46 8.24-18.02 8.87-22.8 0.04-0.31 0.08-0.59 0.11-0.83 0.04-0.29 0.1-0.58 0.1-0.88 0-4.52-4.07-8.17-9.08-8.17zM323.22 653.59c-5.01 0-9.08 3.66-9.08 8.17 0 0.3 0.06 0.58 0.1 0.88 0.03 0.23 0.06 0.51 0.11 0.83 0.64 4.78 2.93 18.35 8.87 22.8 5.94-4.46 8.24-18.02 8.87-22.8 0.04-0.31 0.08-0.59 0.11-0.83 0.04-0.29 0.1-0.58 0.1-0.88-0.01-4.52-4.07-8.17-9.08-8.17zM281.47 608.21c-5.01 0-9.08 3.66-9.08 8.17 0 0.3 0.06 0.58 0.1 0.88 0.03 0.23 0.06 0.51 0.11 0.83 0.64 4.78 2.93 18.35 8.87 22.8 5.94-4.46 8.24-18.02 8.87-22.8 0.04-0.31 0.08-0.59 0.11-0.83 0.04-0.29 0.1-0.58 0.1-0.88-0.01-4.52-4.07-8.17-9.08-8.17zM227.01 642.69c-5.01 0-9.08 3.66-9.08 8.17 0 0.3 0.06 0.58 0.1 0.88 0.03 0.23 0.06 0.51 0.11 0.83 0.64 4.78 2.93 18.35 8.87 22.8 5.94-4.46 8.24-18.02 8.87-22.8 0.04-0.31 0.08-0.59 0.11-0.83 0.04-0.29 0.1-0.58 0.1-0.88 0-4.51-4.07-8.17-9.08-8.17z" fill="#333333" p-id="7892"></path></svg>